%FSAX42Y42*%
%MOMM*%
G71*
G01*
G75*
G04 Layer_Color=65535*
%ADD10R,1.50X1.30*%
%ADD11O,0.60X2.20*%
%ADD12R,1.30X1.50*%
%ADD13R,1.40X1.00*%
%ADD14R,1.02X1.90*%
%ADD15C,0.20*%
%ADD16C,1.00*%
%ADD17C,0.40*%
%ADD18C,0.25*%
%ADD19O,2.20X1.80*%
%ADD20C,1.20*%
%ADD21C,1.50*%
%ADD22R,1.50X1.50*%
%ADD23C,5.50*%
%ADD24C,2.20*%
%ADD25C,1.80*%
%ADD26C,0.80*%
%ADD27C,1.90*%
%ADD28C,4.00*%
%ADD29C,0.60*%
%ADD30C,0.25*%
%ADD31C,0.50*%
%ADD32C,0.20*%
%ADD33C,0.10*%
G36*
X009248Y008642D02*
X009250D01*
X009251Y008642D01*
X009253Y008642D01*
X009256Y008641D01*
X009260Y008640D01*
X009264Y008639D01*
X009268Y008638D01*
X009268D01*
X009268Y008638D01*
X009269Y008638D01*
X009269Y008637D01*
X009270Y008637D01*
X009271Y008636D01*
X009273Y008635D01*
X009276Y008633D01*
X009279Y008632D01*
X009281Y008629D01*
X009283Y008627D01*
Y008627D01*
X009284Y008626D01*
X009284Y008626D01*
X009284Y008625D01*
X009285Y008625D01*
X009285Y008624D01*
X009287Y008622D01*
X009288Y008619D01*
X009290Y008616D01*
X009291Y008612D01*
X009292Y008608D01*
X009278Y008604D01*
Y008604D01*
X009278Y008605D01*
X009278Y008605D01*
X009278Y008606D01*
X009277Y008607D01*
X009277Y008609D01*
X009276Y008611D01*
X009275Y008614D01*
X009273Y008616D01*
X009272Y008618D01*
X009272Y008618D01*
X009271Y008619D01*
X009270Y008620D01*
X009269Y008621D01*
X009268Y008622D01*
X009266Y008623D01*
X009263Y008625D01*
X009261Y008626D01*
X009261D01*
X009261Y008626D01*
X009260Y008626D01*
X009258Y008627D01*
X009256Y008628D01*
X009254Y008628D01*
X009251Y008629D01*
X009248Y008629D01*
X009245Y008629D01*
X009243D01*
X009242Y008629D01*
X009241D01*
X009239Y008629D01*
X009236Y008628D01*
X009233Y008628D01*
X009230Y008627D01*
X009227Y008626D01*
X009227D01*
X009227Y008626D01*
X009226Y008625D01*
X009224Y008625D01*
X009223Y008624D01*
X009221Y008622D01*
X009219Y008621D01*
X009217Y008619D01*
X009215Y008617D01*
X009215Y008617D01*
X009214Y008617D01*
X009213Y008616D01*
X009212Y008614D01*
X009211Y008613D01*
X009210Y008611D01*
X009209Y008608D01*
X009208Y008606D01*
Y008606D01*
X009207Y008606D01*
X009207Y008605D01*
X009207Y008604D01*
X009207Y008603D01*
X009206Y008602D01*
X009206Y008601D01*
X009205Y008599D01*
X009205Y008596D01*
X009204Y008592D01*
X009203Y008587D01*
X009203Y008583D01*
Y008583D01*
Y008582D01*
Y008581D01*
X009203Y008580D01*
Y008579D01*
X009204Y008577D01*
X009204Y008576D01*
X009204Y008574D01*
X009205Y008570D01*
X009205Y008565D01*
X009207Y008561D01*
X009208Y008557D01*
Y008557D01*
X009209Y008557D01*
X009209Y008556D01*
X009210Y008555D01*
X009210Y008555D01*
X009211Y008553D01*
X009212Y008551D01*
X009214Y008549D01*
X009217Y008546D01*
X009220Y008544D01*
X009224Y008542D01*
X009224D01*
X009224Y008541D01*
X009225Y008541D01*
X009226Y008541D01*
X009226Y008540D01*
X009228Y008540D01*
X009229Y008540D01*
X009230Y008539D01*
X009234Y008538D01*
X009237Y008537D01*
X009241Y008537D01*
X009245Y008537D01*
X009247D01*
X009248Y008537D01*
X009249D01*
X009251Y008537D01*
X009254Y008538D01*
X009258Y008538D01*
X009261Y008539D01*
X009265Y008540D01*
X009265D01*
X009265Y008541D01*
X009266Y008541D01*
X009266Y008541D01*
X009268Y008542D01*
X009270Y008543D01*
X009272Y008544D01*
X009275Y008545D01*
X009277Y008547D01*
X009279Y008549D01*
Y008570D01*
X009245D01*
Y008584D01*
X009294D01*
Y008541D01*
X009294Y008541D01*
X009294Y008540D01*
X009293Y008540D01*
X009292Y008539D01*
X009291Y008539D01*
X009290Y008538D01*
X009289Y008537D01*
X009287Y008536D01*
X009283Y008534D01*
X009280Y008532D01*
X009275Y008529D01*
X009271Y008528D01*
X009271D01*
X009270Y008527D01*
X009270Y008527D01*
X009269Y008527D01*
X009268Y008526D01*
X009266Y008526D01*
X009265Y008526D01*
X009263Y008525D01*
X009260Y008525D01*
X009255Y008524D01*
X009251Y008523D01*
X009246Y008523D01*
X009245D01*
X009243Y008523D01*
X009242D01*
X009240Y008524D01*
X009238Y008524D01*
X009236Y008524D01*
X009234Y008524D01*
X009231Y008525D01*
X009226Y008526D01*
X009221Y008528D01*
X009218Y008529D01*
X009215Y008530D01*
X009215Y008530D01*
X009215Y008531D01*
X009214Y008531D01*
X009213Y008532D01*
X009212Y008532D01*
X009211Y008533D01*
X009209Y008534D01*
X009208Y008536D01*
X009206Y008537D01*
X009204Y008539D01*
X009202Y008540D01*
X009201Y008542D01*
X009199Y008544D01*
X009197Y008546D01*
X009196Y008549D01*
X009195Y008551D01*
Y008551D01*
X009194Y008552D01*
X009194Y008553D01*
X009193Y008554D01*
X009193Y008555D01*
X009192Y008556D01*
X009192Y008558D01*
X009191Y008560D01*
X009190Y008562D01*
X009190Y008565D01*
X009189Y008567D01*
X009189Y008570D01*
X009188Y008576D01*
X009188Y008579D01*
X009188Y008582D01*
Y008582D01*
Y008583D01*
Y008584D01*
X009188Y008585D01*
Y008586D01*
X009188Y008588D01*
X009188Y008590D01*
X009188Y008592D01*
X009189Y008595D01*
X009189Y008597D01*
X009190Y008602D01*
X009192Y008608D01*
X009193Y008611D01*
X009194Y008613D01*
X009195Y008614D01*
X009195Y008614D01*
X009195Y008615D01*
X009196Y008616D01*
X009196Y008617D01*
X009197Y008618D01*
X009198Y008620D01*
X009200Y008622D01*
X009201Y008623D01*
X009202Y008625D01*
X009204Y008627D01*
X009206Y008629D01*
X009210Y008632D01*
X009212Y008634D01*
X009215Y008635D01*
X009215Y008635D01*
X009215Y008635D01*
X009216Y008636D01*
X009217Y008636D01*
X009218Y008637D01*
X009220Y008637D01*
X009222Y008638D01*
X009223Y008639D01*
X009226Y008639D01*
X009228Y008640D01*
X009230Y008641D01*
X009233Y008641D01*
X009239Y008642D01*
X009242Y008642D01*
X009245Y008642D01*
X009247D01*
X009248Y008642D01*
D02*
G37*
G36*
X009260Y007562D02*
X009245D01*
X009200Y007678D01*
X009216D01*
X009246Y007594D01*
Y007594D01*
X009247Y007594D01*
X009247Y007593D01*
X009247Y007592D01*
X009247Y007591D01*
X009248Y007590D01*
X009249Y007588D01*
X009249Y007585D01*
X009251Y007582D01*
X009252Y007578D01*
X009252Y007575D01*
Y007575D01*
X009253Y007576D01*
X009253Y007576D01*
X009253Y007577D01*
X009253Y007578D01*
X009254Y007579D01*
X009254Y007581D01*
X009255Y007584D01*
X009256Y007587D01*
X009257Y007591D01*
X009259Y007594D01*
X009290Y007678D01*
X009305D01*
X009260Y007562D01*
D02*
G37*
G36*
X009407Y008525D02*
X009391D01*
X009331Y008615D01*
Y008525D01*
X009316D01*
Y008640D01*
X009332D01*
X009393Y008550D01*
Y008640D01*
X009407D01*
Y008525D01*
D02*
G37*
G36*
X009530Y007646D02*
X009545D01*
Y007635D01*
X009530D01*
Y007586D01*
Y007586D01*
Y007585D01*
Y007584D01*
X009531Y007583D01*
Y007582D01*
X009531Y007580D01*
X009531Y007579D01*
X009531Y007578D01*
X009531Y007578D01*
X009532Y007577D01*
X009532Y007576D01*
X009533Y007576D01*
X009534D01*
X009534Y007575D01*
X009534Y007575D01*
X009535Y007575D01*
X009536Y007575D01*
X009538Y007575D01*
X009540D01*
X009541Y007575D01*
X009542D01*
X009543Y007575D01*
X009545Y007575D01*
X009547Y007563D01*
X009546D01*
X009546Y007562D01*
X009545Y007562D01*
X009543Y007562D01*
X009541Y007562D01*
X009540Y007562D01*
X009536Y007561D01*
X009535D01*
X009533Y007562D01*
X009531Y007562D01*
X009530Y007562D01*
X009528Y007562D01*
X009526Y007563D01*
X009524Y007564D01*
X009524Y007564D01*
X009523Y007564D01*
X009523Y007565D01*
X009522Y007565D01*
X009521Y007566D01*
X009520Y007568D01*
X009519Y007569D01*
X009518Y007570D01*
Y007570D01*
X009518Y007571D01*
X009518Y007572D01*
X009517Y007574D01*
X009517Y007575D01*
X009517Y007576D01*
X009517Y007577D01*
X009517Y007579D01*
X009517Y007581D01*
Y007583D01*
X009516Y007585D01*
Y007587D01*
Y007635D01*
X009506D01*
Y007646D01*
X009516D01*
Y007667D01*
X009530Y007675D01*
Y007646D01*
D02*
G37*
G36*
X009365Y007678D02*
X009366D01*
X009369Y007677D01*
X009372Y007677D01*
X009376Y007676D01*
X009380Y007675D01*
X009383Y007674D01*
X009383D01*
X009383Y007674D01*
X009383Y007674D01*
X009384Y007674D01*
X009385Y007673D01*
X009387Y007671D01*
X009389Y007670D01*
X009391Y007668D01*
X009393Y007666D01*
X009395Y007663D01*
Y007663D01*
X009395Y007663D01*
X009396Y007662D01*
X009397Y007661D01*
X009398Y007659D01*
X009398Y007656D01*
X009399Y007654D01*
X009400Y007651D01*
X009400Y007648D01*
Y007648D01*
Y007648D01*
Y007647D01*
Y007647D01*
X009400Y007646D01*
X009399Y007644D01*
X009399Y007641D01*
X009398Y007639D01*
X009397Y007637D01*
X009396Y007634D01*
X009396Y007634D01*
X009395Y007633D01*
X009394Y007632D01*
X009393Y007630D01*
X009391Y007629D01*
X009389Y007627D01*
X009386Y007625D01*
X009384Y007624D01*
X009384D01*
X009384Y007624D01*
X009385Y007623D01*
X009385Y007623D01*
X009386Y007623D01*
X009387Y007622D01*
X009390Y007621D01*
X009392Y007620D01*
X009395Y007618D01*
X009397Y007616D01*
X009400Y007613D01*
Y007613D01*
X009400Y007613D01*
X009400Y007612D01*
X009401Y007612D01*
X009401Y007610D01*
X009402Y007608D01*
X009404Y007606D01*
X009404Y007603D01*
X009405Y007599D01*
X009405Y007596D01*
Y007596D01*
Y007595D01*
Y007595D01*
Y007594D01*
X009405Y007593D01*
X009405Y007591D01*
X009404Y007589D01*
X009404Y007586D01*
X009403Y007583D01*
X009402Y007581D01*
X009402Y007580D01*
X009401Y007580D01*
X009401Y007578D01*
X009399Y007577D01*
X009398Y007575D01*
X009397Y007573D01*
X009395Y007572D01*
X009393Y007570D01*
X009393Y007570D01*
X009392Y007569D01*
X009391Y007569D01*
X009390Y007568D01*
X009388Y007567D01*
X009386Y007566D01*
X009383Y007565D01*
X009381Y007564D01*
X009380D01*
X009380Y007564D01*
X009379Y007564D01*
X009379Y007564D01*
X009378Y007564D01*
X009376Y007563D01*
X009373Y007563D01*
X009370Y007563D01*
X009366Y007563D01*
X009362Y007562D01*
X009318D01*
Y007678D01*
X009364D01*
X009365Y007678D01*
D02*
G37*
G36*
X009463Y007648D02*
X009466Y007647D01*
X009469Y007647D01*
X009472Y007647D01*
X009474Y007646D01*
X009477Y007645D01*
X009477D01*
X009477Y007645D01*
X009478Y007645D01*
X009479Y007644D01*
X009481Y007643D01*
X009482Y007643D01*
X009484Y007641D01*
X009485Y007640D01*
X009487Y007639D01*
X009487Y007639D01*
X009487Y007638D01*
X009488Y007637D01*
X009489Y007636D01*
X009489Y007635D01*
X009490Y007633D01*
X009491Y007631D01*
X009491Y007629D01*
Y007629D01*
X009491Y007629D01*
X009492Y007628D01*
X009492Y007626D01*
Y007625D01*
X009492Y007622D01*
X009492Y007620D01*
Y007616D01*
Y007597D01*
Y007597D01*
Y007597D01*
Y007596D01*
Y007594D01*
Y007593D01*
Y007591D01*
Y007589D01*
X009492Y007587D01*
Y007583D01*
X009492Y007579D01*
X009493Y007577D01*
Y007575D01*
X009493Y007574D01*
X009493Y007573D01*
Y007572D01*
X009493Y007572D01*
X009493Y007571D01*
X009494Y007569D01*
X009494Y007568D01*
X009495Y007566D01*
X009496Y007564D01*
X009496Y007562D01*
X009482D01*
X009481Y007563D01*
X009481Y007563D01*
X009481Y007564D01*
X009481Y007565D01*
X009480Y007567D01*
X009480Y007569D01*
X009479Y007571D01*
X009479Y007573D01*
X009479D01*
X009479Y007573D01*
X009478Y007572D01*
X009478Y007572D01*
X009476Y007571D01*
X009474Y007569D01*
X009472Y007568D01*
X009469Y007566D01*
X009466Y007565D01*
X009464Y007563D01*
X009463D01*
X009463Y007563D01*
X009463Y007563D01*
X009462Y007563D01*
X009461Y007562D01*
X009459Y007562D01*
X009457Y007562D01*
X009454Y007561D01*
X009451Y007561D01*
X009448Y007561D01*
X009447D01*
X009446Y007561D01*
X009445D01*
X009443Y007561D01*
X009440Y007562D01*
X009437Y007562D01*
X009433Y007564D01*
X009430Y007565D01*
X009429Y007566D01*
X009427Y007567D01*
X009427Y007567D01*
X009427Y007568D01*
X009426Y007568D01*
X009425Y007570D01*
X009423Y007572D01*
X009422Y007574D01*
X009421Y007577D01*
X009420Y007581D01*
X009420Y007582D01*
X009420Y007584D01*
Y007585D01*
Y007585D01*
X009420Y007587D01*
X009420Y007588D01*
X009420Y007590D01*
X009421Y007592D01*
X009421Y007594D01*
X009422Y007596D01*
X009423Y007596D01*
X009423Y007597D01*
X009424Y007597D01*
X009424Y007599D01*
X009425Y007600D01*
X009427Y007601D01*
X009428Y007603D01*
X009430Y007604D01*
X009430Y007604D01*
X009430Y007604D01*
X009432Y007605D01*
X009433Y007606D01*
X009434Y007606D01*
X009436Y007607D01*
X009438Y007608D01*
X009440Y007608D01*
X009440D01*
X009441Y007609D01*
X009442Y007609D01*
X009443Y007609D01*
X009445Y007609D01*
X009447Y007610D01*
X009450Y007610D01*
X009453Y007610D01*
X009453D01*
X009453Y007611D01*
X009454D01*
X009455Y007611D01*
X009457Y007611D01*
X009458Y007611D01*
X009460Y007612D01*
X009462Y007612D01*
X009466Y007613D01*
X009470Y007613D01*
X009474Y007614D01*
X009476Y007615D01*
X009478Y007615D01*
Y007616D01*
Y007616D01*
Y007616D01*
X009478Y007617D01*
Y007618D01*
Y007619D01*
Y007619D01*
Y007619D01*
Y007619D01*
Y007620D01*
Y007620D01*
X009478Y007622D01*
X009477Y007624D01*
X009477Y007626D01*
X009476Y007628D01*
X009475Y007630D01*
X009474Y007631D01*
X009473Y007631D01*
X009473Y007632D01*
X009472Y007633D01*
X009470Y007634D01*
X009467Y007635D01*
X009465Y007635D01*
X009461Y007636D01*
X009458Y007636D01*
X009456D01*
X009454Y007636D01*
X009452Y007636D01*
X009450Y007635D01*
X009447Y007635D01*
X009445Y007634D01*
X009443Y007632D01*
X009443Y007632D01*
X009442Y007632D01*
X009441Y007631D01*
X009440Y007630D01*
X009439Y007628D01*
X009438Y007626D01*
X009437Y007623D01*
X009436Y007620D01*
X009422Y007622D01*
Y007622D01*
X009422Y007623D01*
Y007623D01*
X009422Y007624D01*
X009423Y007625D01*
X009424Y007627D01*
X009424Y007629D01*
X009425Y007632D01*
X009427Y007634D01*
X009428Y007636D01*
X009428Y007637D01*
X009429Y007637D01*
X009430Y007638D01*
X009431Y007640D01*
X009433Y007641D01*
X009435Y007642D01*
X009438Y007644D01*
X009441Y007645D01*
X009441D01*
X009441Y007645D01*
X009442Y007645D01*
X009442Y007645D01*
X009443Y007646D01*
X009444Y007646D01*
X009446Y007646D01*
X009449Y007647D01*
X009452Y007647D01*
X009456Y007648D01*
X009460Y007648D01*
X009462D01*
X009463Y007648D01*
D02*
G37*
G36*
X007515Y007678D02*
X007518D01*
X007521Y007677D01*
X007524Y007677D01*
X007528Y007677D01*
X007530Y007676D01*
X007531D01*
X007531Y007676D01*
X007531Y007676D01*
X007532Y007675D01*
X007533Y007675D01*
X007534Y007675D01*
X007536Y007674D01*
X007539Y007673D01*
X007542Y007672D01*
X007545Y007670D01*
X007547Y007668D01*
X007547Y007668D01*
X007548Y007667D01*
X007548Y007667D01*
X007549Y007666D01*
X007550Y007666D01*
X007550Y007665D01*
X007551Y007664D01*
X007552Y007662D01*
X007555Y007660D01*
X007557Y007656D01*
X007559Y007652D01*
X007561Y007648D01*
Y007648D01*
X007561Y007647D01*
X007561Y007647D01*
X007562Y007646D01*
X007562Y007645D01*
X007562Y007643D01*
X007563Y007642D01*
X007563Y007640D01*
X007564Y007638D01*
X007564Y007636D01*
X007565Y007634D01*
X007565Y007631D01*
X007565Y007626D01*
X007566Y007621D01*
Y007620D01*
Y007620D01*
Y007619D01*
Y007618D01*
X007565Y007617D01*
Y007616D01*
X007565Y007615D01*
X007565Y007613D01*
X007565Y007609D01*
X007564Y007605D01*
X007564Y007601D01*
X007562Y007597D01*
Y007597D01*
X007562Y007597D01*
X007562Y007596D01*
X007562Y007596D01*
X007562Y007595D01*
X007561Y007594D01*
X007560Y007592D01*
X007559Y007589D01*
X007558Y007586D01*
X007556Y007583D01*
X007555Y007581D01*
X007555Y007580D01*
X007554Y007580D01*
X007553Y007578D01*
X007552Y007577D01*
X007550Y007575D01*
X007548Y007573D01*
X007546Y007572D01*
X007544Y007570D01*
X007544Y007570D01*
X007543Y007570D01*
X007542Y007569D01*
X007540Y007568D01*
X007538Y007567D01*
X007536Y007566D01*
X007533Y007565D01*
X007530Y007564D01*
X007530D01*
X007530Y007564D01*
X007530D01*
X007529Y007564D01*
X007528Y007564D01*
X007527Y007564D01*
X007525Y007564D01*
X007522Y007563D01*
X007519Y007563D01*
X007516Y007563D01*
X007512Y007562D01*
X007470D01*
Y007678D01*
X007513D01*
X007515Y007678D01*
D02*
G37*
G36*
X007298Y008525D02*
X007282D01*
X007237Y008640D01*
X007254D01*
X007284Y008556D01*
Y008556D01*
X007284Y008556D01*
X007284Y008555D01*
X007285Y008555D01*
X007285Y008554D01*
X007285Y008553D01*
X007286Y008550D01*
X007287Y008547D01*
X007288Y008544D01*
X007289Y008541D01*
X007290Y008538D01*
Y008538D01*
X007290Y008538D01*
X007290Y008538D01*
X007290Y008539D01*
X007291Y008540D01*
X007291Y008541D01*
X007292Y008543D01*
X007293Y008546D01*
X007294Y008550D01*
X007295Y008553D01*
X007296Y008556D01*
X007327Y008640D01*
X007343D01*
X007298Y008525D01*
D02*
G37*
G36*
X007409Y008642D02*
X007411Y008642D01*
X007413Y008642D01*
X007414Y008641D01*
X007417Y008641D01*
X007421Y008640D01*
X007423Y008639D01*
X007426Y008638D01*
X007428Y008637D01*
X007431Y008636D01*
X007433Y008635D01*
X007435Y008633D01*
X007436Y008633D01*
X007436Y008633D01*
X007437Y008632D01*
X007437Y008632D01*
X007438Y008631D01*
X007440Y008630D01*
X007441Y008628D01*
X007442Y008627D01*
X007443Y008625D01*
X007445Y008623D01*
X007446Y008621D01*
X007447Y008619D01*
X007449Y008617D01*
X007450Y008614D01*
X007451Y008611D01*
X007452Y008609D01*
X007437Y008605D01*
Y008605D01*
X007437Y008606D01*
X007437Y008606D01*
X007436Y008607D01*
X007436Y008608D01*
X007435Y008609D01*
X007434Y008612D01*
X007432Y008615D01*
X007431Y008618D01*
X007428Y008621D01*
X007427Y008622D01*
X007425Y008623D01*
X007425D01*
X007425Y008624D01*
X007425Y008624D01*
X007424Y008624D01*
X007423Y008625D01*
X007422Y008625D01*
X007420Y008626D01*
X007417Y008627D01*
X007414Y008628D01*
X007410Y008629D01*
X007406Y008629D01*
X007405D01*
X007404Y008629D01*
X007403D01*
X007401Y008629D01*
X007400Y008629D01*
X007398Y008628D01*
X007395Y008628D01*
X007391Y008626D01*
X007387Y008625D01*
X007386Y008624D01*
X007384Y008623D01*
X007384D01*
X007383Y008622D01*
X007383Y008622D01*
X007382Y008622D01*
X007381Y008620D01*
X007379Y008618D01*
X007377Y008616D01*
X007375Y008613D01*
X007373Y008610D01*
X007371Y008606D01*
Y008605D01*
X007371Y008605D01*
X007371Y008605D01*
X007371Y008604D01*
X007370Y008603D01*
X007370Y008602D01*
X007370Y008600D01*
X007370Y008599D01*
X007369Y008595D01*
X007368Y008592D01*
X007368Y008588D01*
X007368Y008583D01*
Y008583D01*
Y008583D01*
Y008582D01*
Y008581D01*
X007368Y008580D01*
X007368Y008578D01*
Y008577D01*
X007368Y008575D01*
X007369Y008571D01*
X007370Y008567D01*
X007371Y008562D01*
X007372Y008558D01*
Y008558D01*
X007372Y008557D01*
X007372Y008557D01*
X007373Y008556D01*
X007373Y008555D01*
X007374Y008554D01*
X007375Y008552D01*
X007377Y008549D01*
X007379Y008546D01*
X007382Y008544D01*
X007385Y008541D01*
X007385D01*
X007386Y008541D01*
X007386Y008541D01*
X007387Y008541D01*
X007388Y008540D01*
X007389Y008540D01*
X007391Y008539D01*
X007394Y008538D01*
X007397Y008537D01*
X007401Y008536D01*
X007405Y008536D01*
X007406D01*
X007407Y008536D01*
X007408Y008536D01*
X007409Y008537D01*
X007411Y008537D01*
X007412Y008537D01*
X007416Y008538D01*
X007419Y008539D01*
X007421Y008540D01*
X007423Y008541D01*
X007425Y008542D01*
X007427Y008543D01*
X007427Y008544D01*
X007427Y008544D01*
X007428Y008544D01*
X007428Y008545D01*
X007429Y008546D01*
X007430Y008547D01*
X007431Y008548D01*
X007431Y008549D01*
X007432Y008550D01*
X007434Y008552D01*
X007434Y008554D01*
X007435Y008556D01*
X007436Y008558D01*
X007437Y008560D01*
X007438Y008563D01*
X007439Y008565D01*
X007454Y008561D01*
Y008561D01*
X007454Y008561D01*
X007453Y008560D01*
X007453Y008558D01*
X007453Y008557D01*
X007452Y008555D01*
X007451Y008553D01*
X007450Y008551D01*
X007449Y008549D01*
X007448Y008546D01*
X007446Y008544D01*
X007445Y008541D01*
X007443Y008539D01*
X007441Y008537D01*
X007439Y008535D01*
X007437Y008533D01*
X007437Y008533D01*
X007436Y008532D01*
X007435Y008532D01*
X007434Y008531D01*
X007433Y008531D01*
X007432Y008530D01*
X007430Y008529D01*
X007428Y008528D01*
X007426Y008527D01*
X007424Y008526D01*
X007421Y008525D01*
X007419Y008525D01*
X007416Y008524D01*
X007413Y008524D01*
X007410Y008523D01*
X007406Y008523D01*
X007404D01*
X007403Y008523D01*
X007402Y008523D01*
X007400Y008524D01*
X007398Y008524D01*
X007395Y008524D01*
X007391Y008525D01*
X007386Y008526D01*
X007383Y008527D01*
X007380Y008528D01*
X007378Y008529D01*
X007376Y008531D01*
X007376Y008531D01*
X007375Y008531D01*
X007375Y008531D01*
X007374Y008532D01*
X007373Y008533D01*
X007372Y008534D01*
X007371Y008535D01*
X007369Y008536D01*
X007368Y008538D01*
X007366Y008539D01*
X007365Y008541D01*
X007363Y008543D01*
X007362Y008545D01*
X007361Y008547D01*
X007359Y008550D01*
X007358Y008553D01*
Y008553D01*
X007358Y008553D01*
X007357Y008554D01*
X007357Y008555D01*
X007357Y008556D01*
X007356Y008558D01*
X007356Y008560D01*
X007355Y008562D01*
X007354Y008564D01*
X007354Y008567D01*
X007353Y008569D01*
X007353Y008572D01*
X007352Y008577D01*
X007352Y008583D01*
Y008584D01*
Y008584D01*
Y008585D01*
X007352Y008586D01*
Y008588D01*
X007352Y008590D01*
X007353Y008592D01*
X007353Y008594D01*
X007353Y008596D01*
X007354Y008599D01*
X007355Y008604D01*
X007356Y008610D01*
X007358Y008612D01*
X007359Y008615D01*
X007359Y008615D01*
X007359Y008615D01*
X007359Y008616D01*
X007360Y008617D01*
X007361Y008618D01*
X007362Y008619D01*
X007363Y008621D01*
X007364Y008622D01*
X007367Y008626D01*
X007370Y008629D01*
X007374Y008632D01*
X007376Y008634D01*
X007378Y008635D01*
X007379Y008635D01*
X007379Y008635D01*
X007380Y008636D01*
X007381Y008636D01*
X007382Y008637D01*
X007383Y008637D01*
X007385Y008638D01*
X007387Y008639D01*
X007389Y008639D01*
X007391Y008640D01*
X007396Y008641D01*
X007401Y008642D01*
X007404Y008642D01*
X007408D01*
X007409Y008642D01*
D02*
G37*
G36*
X007526D02*
X007527Y008642D01*
X007529Y008642D01*
X007531Y008641D01*
X007533Y008641D01*
X007537Y008640D01*
X007540Y008639D01*
X007542Y008638D01*
X007545Y008637D01*
X007547Y008636D01*
X007550Y008635D01*
X007552Y008633D01*
X007552Y008633D01*
X007552Y008633D01*
X007553Y008632D01*
X007554Y008632D01*
X007555Y008631D01*
X007556Y008630D01*
X007557Y008628D01*
X007558Y008627D01*
X007560Y008625D01*
X007561Y008623D01*
X007562Y008621D01*
X007564Y008619D01*
X007565Y008617D01*
X007566Y008614D01*
X007567Y008611D01*
X007568Y008609D01*
X007553Y008605D01*
Y008605D01*
X007553Y008606D01*
X007553Y008606D01*
X007553Y008607D01*
X007552Y008608D01*
X007552Y008609D01*
X007550Y008612D01*
X007549Y008615D01*
X007547Y008618D01*
X007544Y008621D01*
X007543Y008622D01*
X007542Y008623D01*
X007542D01*
X007541Y008624D01*
X007541Y008624D01*
X007540Y008624D01*
X007540Y008625D01*
X007539Y008625D01*
X007536Y008626D01*
X007534Y008627D01*
X007530Y008628D01*
X007527Y008629D01*
X007522Y008629D01*
X007521D01*
X007520Y008629D01*
X007519D01*
X007518Y008629D01*
X007516Y008629D01*
X007515Y008628D01*
X007511Y008628D01*
X007507Y008626D01*
X007504Y008625D01*
X007502Y008624D01*
X007500Y008623D01*
X007500D01*
X007500Y008622D01*
X007499Y008622D01*
X007499Y008622D01*
X007497Y008620D01*
X007495Y008618D01*
X007493Y008616D01*
X007491Y008613D01*
X007489Y008610D01*
X007488Y008606D01*
Y008605D01*
X007487Y008605D01*
X007487Y008605D01*
X007487Y008604D01*
X007487Y008603D01*
X007486Y008602D01*
X007486Y008600D01*
X007486Y008599D01*
X007485Y008595D01*
X007485Y008592D01*
X007484Y008588D01*
X007484Y008583D01*
Y008583D01*
Y008583D01*
Y008582D01*
Y008581D01*
X007484Y008580D01*
X007484Y008578D01*
Y008577D01*
X007485Y008575D01*
X007485Y008571D01*
X007486Y008567D01*
X007487Y008562D01*
X007488Y008558D01*
Y008558D01*
X007488Y008557D01*
X007489Y008557D01*
X007489Y008556D01*
X007490Y008555D01*
X007490Y008554D01*
X007492Y008552D01*
X007493Y008549D01*
X007496Y008546D01*
X007498Y008544D01*
X007502Y008541D01*
X007502D01*
X007502Y008541D01*
X007502Y008541D01*
X007503Y008541D01*
X007504Y008540D01*
X007505Y008540D01*
X007507Y008539D01*
X007510Y008538D01*
X007514Y008537D01*
X007517Y008536D01*
X007521Y008536D01*
X007522D01*
X007523Y008536D01*
X007524Y008536D01*
X007526Y008537D01*
X007527Y008537D01*
X007529Y008537D01*
X007532Y008538D01*
X007536Y008539D01*
X007538Y008540D01*
X007539Y008541D01*
X007541Y008542D01*
X007543Y008543D01*
X007543Y008544D01*
X007543Y008544D01*
X007544Y008544D01*
X007544Y008545D01*
X007545Y008546D01*
X007546Y008547D01*
X007547Y008548D01*
X007548Y008549D01*
X007549Y008550D01*
X007550Y008552D01*
X007551Y008554D01*
X007552Y008556D01*
X007553Y008558D01*
X007554Y008560D01*
X007554Y008563D01*
X007555Y008565D01*
X007570Y008561D01*
Y008561D01*
X007570Y008561D01*
X007570Y008560D01*
X007569Y008558D01*
X007569Y008557D01*
X007568Y008555D01*
X007567Y008553D01*
X007566Y008551D01*
X007565Y008549D01*
X007564Y008546D01*
X007563Y008544D01*
X007561Y008541D01*
X007559Y008539D01*
X007557Y008537D01*
X007555Y008535D01*
X007553Y008533D01*
X007553Y008533D01*
X007552Y008532D01*
X007552Y008532D01*
X007551Y008531D01*
X007550Y008531D01*
X007548Y008530D01*
X007546Y008529D01*
X007545Y008528D01*
X007542Y008527D01*
X007540Y008526D01*
X007538Y008525D01*
X007535Y008525D01*
X007532Y008524D01*
X007529Y008524D01*
X007526Y008523D01*
X007523Y008523D01*
X007521D01*
X007519Y008523D01*
X007518Y008523D01*
X007516Y008524D01*
X007514Y008524D01*
X007512Y008524D01*
X007507Y008525D01*
X007502Y008526D01*
X007499Y008527D01*
X007497Y008528D01*
X007494Y008529D01*
X007492Y008531D01*
X007492Y008531D01*
X007492Y008531D01*
X007491Y008531D01*
X007490Y008532D01*
X007489Y008533D01*
X007488Y008534D01*
X007487Y008535D01*
X007486Y008536D01*
X007484Y008538D01*
X007483Y008539D01*
X007481Y008541D01*
X007480Y008543D01*
X007478Y008545D01*
X007477Y008547D01*
X007475Y008550D01*
X007474Y008553D01*
Y008553D01*
X007474Y008553D01*
X007474Y008554D01*
X007473Y008555D01*
X007473Y008556D01*
X007472Y008558D01*
X007472Y008560D01*
X007471Y008562D01*
X007471Y008564D01*
X007470Y008567D01*
X007470Y008569D01*
X007469Y008572D01*
X007469Y008577D01*
X007468Y008583D01*
Y008584D01*
Y008584D01*
Y008585D01*
X007468Y008586D01*
Y008588D01*
X007469Y008590D01*
X007469Y008592D01*
X007469Y008594D01*
X007469Y008596D01*
X007470Y008599D01*
X007471Y008604D01*
X007473Y008610D01*
X007474Y008612D01*
X007475Y008615D01*
X007475Y008615D01*
X007475Y008615D01*
X007476Y008616D01*
X007476Y008617D01*
X007477Y008618D01*
X007478Y008619D01*
X007479Y008621D01*
X007480Y008622D01*
X007483Y008626D01*
X007486Y008629D01*
X007490Y008632D01*
X007492Y008634D01*
X007495Y008635D01*
X007495Y008635D01*
X007495Y008635D01*
X007496Y008636D01*
X007497Y008636D01*
X007498Y008637D01*
X007499Y008637D01*
X007501Y008638D01*
X007503Y008639D01*
X007505Y008639D01*
X007507Y008640D01*
X007512Y008641D01*
X007517Y008642D01*
X007520Y008642D01*
X007524D01*
X007526Y008642D01*
D02*
G37*
G36*
X007286Y007680D02*
X007287D01*
X007289Y007679D01*
X007290Y007679D01*
X007294Y007679D01*
X007297Y007678D01*
X007301Y007677D01*
X007305Y007675D01*
X007305D01*
X007306Y007675D01*
X007306Y007675D01*
X007307Y007675D01*
X007308Y007674D01*
X007309Y007674D01*
X007311Y007673D01*
X007313Y007671D01*
X007316Y007669D01*
X007319Y007667D01*
X007321Y007664D01*
Y007664D01*
X007321Y007664D01*
X007322Y007664D01*
X007322Y007663D01*
X007322Y007662D01*
X007323Y007661D01*
X007324Y007659D01*
X007326Y007656D01*
X007327Y007653D01*
X007329Y007650D01*
X007330Y007645D01*
X007316Y007642D01*
Y007642D01*
X007316Y007642D01*
X007316Y007643D01*
X007316Y007643D01*
X007315Y007645D01*
X007314Y007647D01*
X007313Y007649D01*
X007312Y007651D01*
X007311Y007653D01*
X007310Y007655D01*
X007309Y007656D01*
X007309Y007656D01*
X007308Y007657D01*
X007307Y007658D01*
X007305Y007660D01*
X007303Y007661D01*
X007301Y007662D01*
X007298Y007664D01*
X007298D01*
X007298Y007664D01*
X007297Y007664D01*
X007296Y007665D01*
X007294Y007665D01*
X007292Y007666D01*
X007289Y007666D01*
X007286Y007667D01*
X007283Y007667D01*
X007281D01*
X007280Y007667D01*
X007279D01*
X007277Y007666D01*
X007274Y007666D01*
X007271Y007665D01*
X007268Y007664D01*
X007265Y007663D01*
X007264D01*
X007264Y007663D01*
X007263Y007663D01*
X007262Y007662D01*
X007260Y007661D01*
X007258Y007660D01*
X007256Y007659D01*
X007254Y007657D01*
X007252Y007655D01*
X007252Y007655D01*
X007252Y007654D01*
X007251Y007653D01*
X007250Y007652D01*
X007249Y007650D01*
X007247Y007648D01*
X007246Y007646D01*
X007245Y007644D01*
Y007643D01*
X007245Y007643D01*
X007245Y007643D01*
X007244Y007642D01*
X007244Y007641D01*
X007244Y007640D01*
X007243Y007638D01*
X007243Y007637D01*
X007242Y007633D01*
X007241Y007629D01*
X007241Y007625D01*
X007241Y007620D01*
Y007620D01*
Y007620D01*
Y007619D01*
X007241Y007618D01*
Y007616D01*
X007241Y007615D01*
X007241Y007613D01*
X007241Y007611D01*
X007242Y007607D01*
X007243Y007603D01*
X007244Y007599D01*
X007246Y007595D01*
Y007594D01*
X007246Y007594D01*
X007247Y007594D01*
X007247Y007593D01*
X007247Y007592D01*
X007248Y007591D01*
X007250Y007589D01*
X007252Y007586D01*
X007255Y007584D01*
X007258Y007581D01*
X007261Y007579D01*
X007261D01*
X007262Y007579D01*
X007262Y007579D01*
X007263Y007578D01*
X007264Y007578D01*
X007265Y007578D01*
X007266Y007577D01*
X007268Y007577D01*
X007271Y007576D01*
X007275Y007575D01*
X007279Y007574D01*
X007283Y007574D01*
X007284D01*
X007285Y007574D01*
X007286D01*
X007289Y007575D01*
X007292Y007575D01*
X007295Y007576D01*
X007299Y007577D01*
X007302Y007578D01*
X007302D01*
X007303Y007578D01*
X007303Y007578D01*
X007304Y007579D01*
X007305Y007579D01*
X007308Y007580D01*
X007310Y007582D01*
X007312Y007583D01*
X007314Y007584D01*
X007317Y007586D01*
Y007608D01*
X007283D01*
Y007621D01*
X007332D01*
Y007578D01*
X007331Y007578D01*
X007331Y007578D01*
X007331Y007577D01*
X007330Y007577D01*
X007329Y007576D01*
X007327Y007575D01*
X007326Y007574D01*
X007325Y007573D01*
X007321Y007571D01*
X007317Y007569D01*
X007313Y007567D01*
X007308Y007565D01*
X007308D01*
X007308Y007565D01*
X007307Y007565D01*
X007306Y007564D01*
X007305Y007564D01*
X007304Y007564D01*
X007302Y007563D01*
X007301Y007563D01*
X007297Y007562D01*
X007293Y007561D01*
X007288Y007561D01*
X007284Y007561D01*
X007282D01*
X007281Y007561D01*
X007279D01*
X007278Y007561D01*
X007276Y007561D01*
X007274Y007561D01*
X007271Y007562D01*
X007269Y007562D01*
X007264Y007564D01*
X007258Y007565D01*
X007256Y007567D01*
X007253Y007568D01*
X007253Y007568D01*
X007252Y007568D01*
X007252Y007568D01*
X007251Y007569D01*
X007249Y007570D01*
X007248Y007571D01*
X007247Y007572D01*
X007245Y007573D01*
X007243Y007574D01*
X007242Y007576D01*
X007240Y007578D01*
X007238Y007580D01*
X007237Y007582D01*
X007235Y007584D01*
X007233Y007586D01*
X007232Y007589D01*
Y007589D01*
X007232Y007589D01*
X007231Y007590D01*
X007231Y007591D01*
X007230Y007592D01*
X007230Y007594D01*
X007229Y007596D01*
X007229Y007598D01*
X007228Y007600D01*
X007227Y007602D01*
X007227Y007605D01*
X007226Y007607D01*
X007225Y007613D01*
X007225Y007616D01*
X007225Y007619D01*
Y007620D01*
Y007620D01*
Y007621D01*
X007225Y007622D01*
Y007624D01*
X007225Y007626D01*
X007226Y007628D01*
X007226Y007630D01*
X007226Y007632D01*
X007227Y007635D01*
X007228Y007640D01*
X007230Y007645D01*
X007231Y007648D01*
X007232Y007651D01*
X007232Y007651D01*
X007232Y007652D01*
X007233Y007652D01*
X007233Y007653D01*
X007234Y007655D01*
X007235Y007656D01*
X007236Y007657D01*
X007237Y007659D01*
X007238Y007661D01*
X007240Y007663D01*
X007242Y007664D01*
X007243Y007666D01*
X007247Y007669D01*
X007250Y007671D01*
X007252Y007672D01*
X007252Y007673D01*
X007253Y007673D01*
X007253Y007673D01*
X007255Y007674D01*
X007256Y007674D01*
X007257Y007675D01*
X007259Y007675D01*
X007261Y007676D01*
X007263Y007677D01*
X007265Y007677D01*
X007268Y007678D01*
X007271Y007679D01*
X007276Y007679D01*
X007279Y007680D01*
X007283Y007680D01*
X007285D01*
X007286Y007680D01*
D02*
G37*
G36*
X009477Y008640D02*
X009480D01*
X009483Y008640D01*
X009487Y008639D01*
X009490Y008639D01*
X009493Y008638D01*
X009493D01*
X009493Y008638D01*
X009494Y008638D01*
X009495Y008638D01*
X009495Y008638D01*
X009497Y008637D01*
X009499Y008637D01*
X009501Y008635D01*
X009504Y008634D01*
X009507Y008632D01*
X009510Y008630D01*
X009510Y008630D01*
X009510Y008630D01*
X009511Y008629D01*
X009511Y008629D01*
X009512Y008628D01*
X009513Y008627D01*
X009514Y008626D01*
X009515Y008625D01*
X009517Y008622D01*
X009519Y008619D01*
X009522Y008615D01*
X009523Y008611D01*
Y008610D01*
X009524Y008610D01*
X009524Y008609D01*
X009524Y008608D01*
X009525Y008607D01*
X009525Y008606D01*
X009525Y008604D01*
X009526Y008603D01*
X009526Y008601D01*
X009527Y008599D01*
X009527Y008596D01*
X009527Y008594D01*
X009528Y008589D01*
X009528Y008583D01*
Y008583D01*
Y008583D01*
Y008582D01*
Y008581D01*
X009528Y008580D01*
Y008579D01*
X009528Y008577D01*
X009528Y008575D01*
X009527Y008572D01*
X009527Y008568D01*
X009526Y008564D01*
X009525Y008560D01*
Y008560D01*
X009525Y008559D01*
X009525Y008559D01*
X009524Y008558D01*
X009524Y008557D01*
X009524Y008556D01*
X009523Y008554D01*
X009522Y008551D01*
X009520Y008549D01*
X009519Y008546D01*
X009517Y008543D01*
X009517Y008543D01*
X009516Y008542D01*
X009515Y008541D01*
X009514Y008539D01*
X009513Y008538D01*
X009511Y008536D01*
X009509Y008534D01*
X009507Y008533D01*
X009506Y008532D01*
X009506Y008532D01*
X009504Y008531D01*
X009503Y008531D01*
X009501Y008530D01*
X009498Y008529D01*
X009496Y008528D01*
X009493Y008527D01*
X009493D01*
X009492Y008527D01*
X009492D01*
X009491Y008527D01*
X009491Y008526D01*
X009490Y008526D01*
X009488Y008526D01*
X009485Y008526D01*
X009482Y008525D01*
X009478Y008525D01*
X009474Y008525D01*
X009433D01*
Y008640D01*
X009476D01*
X009477Y008640D01*
D02*
G37*
G36*
X007445Y007562D02*
X007429D01*
X007369Y007653D01*
Y007562D01*
X007354D01*
Y007678D01*
X007369D01*
X007430Y007587D01*
Y007678D01*
X007445D01*
Y007562D01*
D02*
G37*
%LPC*%
G36*
X009475Y008627D02*
X009448D01*
Y008539D01*
X009476D01*
X009477Y008539D01*
X009479Y008539D01*
X009482Y008539D01*
X009485Y008540D01*
X009488Y008540D01*
X009491Y008541D01*
X009491D01*
X009491Y008541D01*
X009492Y008541D01*
X009493Y008542D01*
X009494Y008542D01*
X009496Y008543D01*
X009498Y008544D01*
X009499Y008545D01*
X009501Y008547D01*
X009501Y008547D01*
X009502Y008548D01*
X009503Y008549D01*
X009504Y008550D01*
X009505Y008553D01*
X009507Y008555D01*
X009508Y008558D01*
X009509Y008561D01*
Y008561D01*
X009509Y008562D01*
X009510Y008562D01*
X009510Y008563D01*
X009510Y008564D01*
X009510Y008565D01*
X009511Y008566D01*
X009511Y008567D01*
X009511Y008569D01*
X009511Y008571D01*
X009512Y008574D01*
X009512Y008579D01*
X009512Y008583D01*
Y008584D01*
Y008584D01*
Y008585D01*
X009512Y008586D01*
Y008588D01*
X009512Y008590D01*
X009512Y008592D01*
X009512Y008594D01*
X009511Y008598D01*
X009510Y008603D01*
X009508Y008607D01*
X009507Y008609D01*
X009506Y008611D01*
Y008611D01*
X009506Y008612D01*
X009506Y008612D01*
X009505Y008613D01*
X009504Y008614D01*
X009502Y008616D01*
X009500Y008619D01*
X009498Y008621D01*
X009495Y008623D01*
X009494Y008623D01*
X009492Y008624D01*
X009492Y008624D01*
X009491Y008625D01*
X009491Y008625D01*
X009490Y008625D01*
X009489Y008625D01*
X009488Y008625D01*
X009487Y008625D01*
X009486Y008626D01*
X009485Y008626D01*
X009483Y008626D01*
X009481Y008626D01*
X009479Y008626D01*
X009477D01*
X009475Y008627D01*
D02*
G37*
G36*
X009361Y007664D02*
X009334D01*
Y007629D01*
X009362D01*
X009364Y007629D01*
X009366Y007630D01*
X009369Y007630D01*
X009371Y007630D01*
X009373Y007631D01*
X009373Y007631D01*
X009374Y007631D01*
X009375Y007631D01*
X009376Y007632D01*
X009378Y007633D01*
X009379Y007634D01*
X009381Y007635D01*
X009382Y007636D01*
X009382Y007636D01*
X009382Y007637D01*
X009383Y007638D01*
X009383Y007639D01*
X009384Y007640D01*
X009384Y007642D01*
X009385Y007644D01*
X009385Y007646D01*
Y007647D01*
Y007647D01*
X009385Y007649D01*
X009384Y007650D01*
X009384Y007651D01*
X009384Y007653D01*
X009383Y007655D01*
X009382Y007656D01*
X009382Y007657D01*
X009381Y007657D01*
X009381Y007658D01*
X009380Y007659D01*
X009379Y007660D01*
X009378Y007661D01*
X009376Y007662D01*
X009374Y007662D01*
X009374Y007663D01*
X009373Y007663D01*
X009372Y007663D01*
X009370Y007663D01*
X009369Y007664D01*
X009368Y007664D01*
X009366D01*
X009365Y007664D01*
X009363Y007664D01*
X009361Y007664D01*
D02*
G37*
G36*
X007512D02*
X007486D01*
Y007576D01*
X007513D01*
X007514Y007576D01*
X007517Y007576D01*
X007519Y007577D01*
X007522Y007577D01*
X007525Y007577D01*
X007528Y007578D01*
X007528D01*
X007528Y007578D01*
X007529Y007579D01*
X007530Y007579D01*
X007532Y007580D01*
X007533Y007581D01*
X007535Y007582D01*
X007537Y007583D01*
X007538Y007584D01*
X007539Y007584D01*
X007539Y007585D01*
X007540Y007586D01*
X007542Y007588D01*
X007543Y007590D01*
X007544Y007593D01*
X007546Y007595D01*
X007547Y007599D01*
Y007599D01*
X007547Y007599D01*
X007547Y007600D01*
X007547Y007600D01*
X007547Y007601D01*
X007548Y007602D01*
X007548Y007604D01*
X007548Y007605D01*
X007549Y007607D01*
X007549Y007608D01*
X007549Y007612D01*
X007550Y007616D01*
X007550Y007621D01*
Y007621D01*
Y007622D01*
Y007623D01*
X007550Y007624D01*
Y007625D01*
X007550Y007627D01*
X007549Y007629D01*
X007549Y007631D01*
X007548Y007636D01*
X007547Y007640D01*
X007546Y007645D01*
X007545Y007647D01*
X007544Y007649D01*
Y007649D01*
X007544Y007649D01*
X007543Y007650D01*
X007543Y007650D01*
X007542Y007652D01*
X007540Y007654D01*
X007538Y007656D01*
X007535Y007658D01*
X007533Y007660D01*
X007531Y007661D01*
X007530Y007662D01*
X007529Y007662D01*
X007529Y007662D01*
X007528Y007662D01*
X007528Y007662D01*
X007527Y007662D01*
X007526Y007663D01*
X007525Y007663D01*
X007524Y007663D01*
X007522Y007663D01*
X007520Y007664D01*
X007519Y007664D01*
X007517Y007664D01*
X007515D01*
X007512Y007664D01*
D02*
G37*
G36*
X009478Y007604D02*
X009478D01*
X009477Y007604D01*
X009477Y007604D01*
X009476Y007604D01*
X009475Y007604D01*
X009474Y007603D01*
X009473Y007603D01*
X009472Y007603D01*
X009470Y007602D01*
X009469Y007602D01*
X009467Y007601D01*
X009465Y007601D01*
X009462Y007600D01*
X009460Y007600D01*
X009457Y007599D01*
X009455Y007599D01*
X009454D01*
X009454Y007599D01*
X009453D01*
X009452Y007598D01*
X009450Y007598D01*
X009448Y007598D01*
X009446Y007597D01*
X009444Y007597D01*
X009442Y007596D01*
X009442D01*
X009442Y007596D01*
X009441Y007595D01*
X009440Y007595D01*
X009438Y007594D01*
X009438Y007593D01*
X009437Y007592D01*
X009437Y007591D01*
X009436Y007591D01*
X009436Y007590D01*
X009436Y007590D01*
X009435Y007589D01*
X009435Y007588D01*
X009435Y007586D01*
X009435Y007585D01*
Y007585D01*
Y007584D01*
X009435Y007583D01*
X009435Y007582D01*
X009436Y007580D01*
X009437Y007579D01*
X009438Y007577D01*
X009439Y007576D01*
X009439Y007575D01*
X009440Y007575D01*
X009441Y007574D01*
X009442Y007574D01*
X009444Y007573D01*
X009446Y007572D01*
X009449Y007572D01*
X009452Y007572D01*
X009453D01*
X009454Y007572D01*
X009456Y007572D01*
X009459Y007573D01*
X009461Y007573D01*
X009464Y007574D01*
X009466Y007575D01*
X009466D01*
X009466Y007575D01*
X009467Y007576D01*
X009468Y007577D01*
X009470Y007578D01*
X009471Y007579D01*
X009473Y007581D01*
X009474Y007583D01*
X009475Y007585D01*
X009476Y007585D01*
X009476Y007586D01*
X009476Y007587D01*
X009477Y007589D01*
X009477Y007591D01*
X009477Y007593D01*
X009478Y007596D01*
X009478Y007599D01*
Y007604D01*
D02*
G37*
G36*
X009360Y007616D02*
X009334D01*
Y007576D01*
X009366D01*
X009370Y007576D01*
X009371Y007576D01*
X009373Y007577D01*
X009373D01*
X009374Y007577D01*
X009374Y007577D01*
X009376Y007577D01*
X009377Y007578D01*
X009378Y007578D01*
X009380Y007579D01*
X009381Y007580D01*
X009381Y007580D01*
X009382Y007580D01*
X009383Y007581D01*
X009383Y007581D01*
X009384Y007582D01*
X009385Y007583D01*
X009386Y007585D01*
X009387Y007586D01*
X009387Y007586D01*
X009388Y007587D01*
X009388Y007588D01*
X009388Y007589D01*
X009389Y007590D01*
X009389Y007592D01*
X009389Y007594D01*
X009390Y007596D01*
Y007596D01*
Y007597D01*
X009389Y007598D01*
X009389Y007600D01*
X009389Y007601D01*
X009388Y007603D01*
X009387Y007605D01*
X009386Y007607D01*
X009386Y007607D01*
X009386Y007608D01*
X009385Y007609D01*
X009384Y007610D01*
X009382Y007611D01*
X009381Y007612D01*
X009379Y007613D01*
X009377Y007614D01*
X009377Y007614D01*
X009376Y007614D01*
X009375Y007614D01*
X009373Y007615D01*
X009370Y007615D01*
X009367Y007615D01*
X009364Y007616D01*
X009360Y007616D01*
D02*
G37*
%LPD*%
D18*
X007567Y008464D02*
G03*
X007567Y008464I-000008J000000D01*
G01*
X006242D02*
G03*
X006242Y008464I-000008J000000D01*
G01*
X009639Y008690D02*
X009588D01*
X009562Y008664D01*
Y008563D01*
X009588Y008538D01*
X009639D01*
X009664Y008563D01*
Y008664D01*
X009639Y008690D01*
X009715Y008538D02*
Y008639D01*
X009791D01*
X009816Y008614D01*
Y008538D01*
X007888Y008450D02*
Y008602D01*
X007964D01*
X007989Y008577D01*
Y008526D01*
X007964Y008501D01*
X007888D01*
X007938D02*
X007989Y008450D01*
X008116D02*
Y008602D01*
X008040Y008526D01*
X008141D01*
X006188Y008775D02*
Y008927D01*
X006264D01*
X006289Y008902D01*
Y008851D01*
X006264Y008826D01*
X006188D01*
X006238D02*
X006289Y008775D01*
X006340Y008902D02*
X006365Y008927D01*
X006416D01*
X006441Y008902D01*
Y008877D01*
X006416Y008851D01*
X006391D01*
X006416D01*
X006441Y008826D01*
Y008800D01*
X006416Y008775D01*
X006365D01*
X006340Y008800D01*
X005875Y009462D02*
Y009615D01*
X005951D01*
X005977Y009589D01*
Y009539D01*
X005951Y009513D01*
X005875D01*
X005926D02*
X005977Y009462D01*
X006129D02*
X006027D01*
X006129Y009564D01*
Y009589D01*
X006104Y009615D01*
X006053D01*
X006027Y009589D01*
X008000Y008900D02*
Y009052D01*
X008076D01*
X008102Y009027D01*
Y008976D01*
X008076Y008951D01*
X008000D01*
X008051D02*
X008102Y008900D01*
X008152D02*
X008203D01*
X008178D01*
Y009052D01*
X008152Y009027D01*
X009589Y009990D02*
X009538D01*
X009512Y009964D01*
Y009863D01*
X009538Y009838D01*
X009589D01*
X009614Y009863D01*
Y009964D01*
X009589Y009990D01*
X009690Y009838D02*
Y009964D01*
Y009914D01*
X009665D01*
X009716D01*
X009690D01*
Y009964D01*
X009716Y009990D01*
X009817Y009838D02*
Y009964D01*
Y009914D01*
X009792D01*
X009843D01*
X009817D01*
Y009964D01*
X009843Y009990D01*
X007624Y007750D02*
Y007852D01*
Y008350D02*
Y008452D01*
X007573Y008401D02*
X007675D01*
X007575Y009365D02*
Y009212D01*
X007677D01*
X007727D02*
X007778D01*
X007753D01*
Y009365D01*
X007727Y009339D01*
X008138Y007588D02*
Y007740D01*
X008214D01*
X008239Y007714D01*
Y007664D01*
X008214Y007638D01*
X008138D01*
X008290Y007740D02*
Y007588D01*
X008341Y007638D01*
X008391Y007588D01*
Y007740D01*
X008442Y007588D02*
Y007740D01*
X008518D01*
X008544Y007714D01*
Y007664D01*
X008518Y007638D01*
X008442D01*
X008493D02*
X008544Y007588D01*
X009036Y007952D02*
X009010Y007926D01*
Y007875D01*
X009036Y007850D01*
X009137D01*
X009162Y007875D01*
Y007926D01*
X009137Y007952D01*
X009036Y008002D02*
X009010Y008028D01*
Y008079D01*
X009036Y008104D01*
X009061D01*
X009086Y008079D01*
X009112Y008104D01*
X009137D01*
X009162Y008079D01*
Y008028D01*
X009137Y008002D01*
X009112D01*
X009086Y008028D01*
X009061Y008002D01*
X009036D01*
X009086Y008028D02*
Y008079D01*
X007036Y009727D02*
X007010Y009701D01*
Y009650D01*
X007036Y009625D01*
X007137D01*
X007162Y009650D01*
Y009701D01*
X007137Y009727D01*
X007010Y009777D02*
Y009879D01*
X007036D01*
X007137Y009777D01*
X007162D01*
X006798Y009727D02*
X006773Y009701D01*
Y009650D01*
X006798Y009625D01*
X006900D01*
X006925Y009650D01*
Y009701D01*
X006900Y009727D01*
X006773Y009879D02*
X006798Y009828D01*
X006849Y009777D01*
X006900D01*
X006925Y009803D01*
Y009854D01*
X006900Y009879D01*
X006874D01*
X006849Y009854D01*
Y009777D01*
X008811Y007952D02*
X008785Y007926D01*
Y007875D01*
X008811Y007850D01*
X008912D01*
X008938Y007875D01*
Y007926D01*
X008912Y007952D01*
X008785Y008104D02*
Y008002D01*
X008861D01*
X008836Y008053D01*
Y008079D01*
X008861Y008104D01*
X008912D01*
X008938Y008079D01*
Y008028D01*
X008912Y008002D01*
X008252Y010014D02*
X008226Y010040D01*
X008175D01*
X008150Y010014D01*
Y009913D01*
X008175Y009888D01*
X008226D01*
X008252Y009913D01*
X008379Y009888D02*
Y010040D01*
X008302Y009964D01*
X008404D01*
X009189Y010014D02*
X009164Y010040D01*
X009113D01*
X009088Y010014D01*
Y009913D01*
X009113Y009888D01*
X009164D01*
X009189Y009913D01*
X009240Y010014D02*
X009265Y010040D01*
X009316D01*
X009341Y010014D01*
Y009989D01*
X009316Y009964D01*
X009291D01*
X009316D01*
X009341Y009938D01*
Y009913D01*
X009316Y009888D01*
X009265D01*
X009240Y009913D01*
X008889Y010014D02*
X008864Y010040D01*
X008813D01*
X008788Y010014D01*
Y009913D01*
X008813Y009888D01*
X008864D01*
X008889Y009913D01*
X009041Y009888D02*
X008940D01*
X009041Y009989D01*
Y010014D01*
X009016Y010040D01*
X008965D01*
X008940Y010014D01*
X008627D02*
X008601Y010040D01*
X008550D01*
X008525Y010014D01*
Y009913D01*
X008550Y009888D01*
X008601D01*
X008627Y009913D01*
X008677Y009888D02*
X008728D01*
X008703D01*
Y010040D01*
X008677Y010014D01*
X005062Y010062D02*
G03*
X004938Y009938I000000J-000125D01*
G01*
X004938Y007688D02*
G03*
X005062Y007562I000125J000000D01*
G01*
X009812Y007562D02*
G03*
X009938Y007688I000000J000125D01*
G01*
X009938Y009938D02*
G03*
X009812Y010062I-000125J000000D01*
G01*
X005062D02*
X009812D01*
X004938Y007688D02*
Y009938D01*
X005062Y007562D02*
X009812D01*
X009938Y007688D02*
Y009938D01*
D29*
X008555Y009022D02*
G03*
X008555Y009022I-000030J000000D01*
G01*
D30*
X008412Y008772D02*
G03*
X008412Y008772I-000012J000000D01*
G01*
D31*
X008125Y009488D02*
G03*
X008125Y009488I-000450J000000D01*
G01*
D32*
X008925Y008922D02*
Y009103D01*
X008425Y008922D02*
Y009103D01*
X008925D01*
X008425Y008922D02*
X008925D01*
D33*
X007972Y007835D02*
Y007862D01*
Y007835D02*
X008053D01*
Y007862D01*
X009482Y009697D02*
X009568D01*
X009459Y009675D02*
X009479Y009695D01*
X009459Y008852D02*
Y009675D01*
Y008852D02*
X009484Y008826D01*
X009571D01*
X009212Y007700D02*
Y008400D01*
Y007700D02*
X009862D01*
X009212Y008400D02*
X009862D01*
X009412D02*
Y008400D01*
X009312Y008400D02*
Y008425D01*
X009288Y008450D02*
X009312Y008425D01*
X009288Y008450D02*
Y008475D01*
X009388D01*
Y008450D02*
Y008475D01*
X009362Y008425D02*
X009388Y008450D01*
X009362Y008400D02*
Y008425D01*
X009712Y008400D02*
Y008425D01*
X009738Y008450D01*
Y008475D01*
X009638D02*
X009738D01*
X009638Y008450D02*
Y008475D01*
Y008450D02*
X009662Y008425D01*
Y008400D02*
Y008425D01*
X009862Y008400D02*
X009938D01*
Y008275D02*
Y008400D01*
X009862Y008275D02*
X009938D01*
X009738D02*
X009862D01*
X009738Y008175D02*
Y008275D01*
Y008175D02*
X009938D01*
Y007925D02*
Y008175D01*
X009738Y007925D02*
X009938D01*
X009738Y007825D02*
Y007925D01*
Y007825D02*
X009938D01*
Y007700D02*
Y007825D01*
X009862Y007700D02*
X009938D01*
M02*
