M48
;Layer_Color=9474304
;FILE_FORMAT=4:2
METRIC
;TYPE=PLATED
T1F00S00C0.40
T2F00S00C0.70
T3F00S00C0.80
T4F00S00C0.90
T5F00S00C1.20
T6F00S00C1.50
T7F00S00C2.60
;TYPE=NON_PLATED
T8F00S00C1.02
T9F00S00C1.20
%
T01
X009325Y007750
X009688Y007762
X007888Y007625
X007138
X006800
X006288
X005738
X005238
X005500Y008875
X005800Y008800
X005975Y008875
X006088Y009062
X005988Y009338
X006862Y009300
X006912Y009175
X007062
X007100Y009300
Y009488
X006875
X006762Y009175
X006538Y008850
X006475Y008700
X006625Y008575
X007238Y008838
X007600
X007838Y008862
X007762Y008488
X007738Y008225
X005052Y009948
X008262Y009750
Y009550
X008612Y009325
X008738Y009362
Y009262
X008988Y009250
X008962Y009400
X009112Y009412
X009212Y009555
X009338Y009450
X009462Y009600
Y009688
Y009775
X009775Y010012
X008912Y009555
X009012Y008812
X009312Y008712
X009400Y008038
X008975Y007975
X008850Y008255
X008625Y008375
X008525Y008575
X008275Y008962
T02
X007425Y009488
X007925
T03
X009688Y009062
Y009262
Y009462
T04
X007762Y007833
Y008088
X009238Y009008
Y009262
T05
X009538Y007875
X005750Y008985
Y009335
X005750Y009685
X009538Y008225
T06
X009688Y008853
Y009672
T07
X006438Y009562
X008438Y008062
T08
X005109Y007971
Y008225
X005363
X005617
X005871
X006125
Y007971
X005871
X005617
X005363
X006434
Y008225
X006688
X006942
X007196
X007450
Y007971
X007196
X006942
X006688
T09
X005236Y008098
X005998
X006561
X007323
M30
