%FSAX42Y42*%
%MOMM*%
G71*
G01*
G75*
G04 Layer_Color=8388736*
%ADD10R,1.50X1.30*%
%ADD11O,0.60X2.20*%
%ADD12R,1.30X1.50*%
%ADD13R,1.40X1.00*%
%ADD14R,1.02X1.90*%
%ADD15C,0.20*%
%ADD16C,1.00*%
%ADD17C,0.40*%
%ADD18C,0.25*%
%ADD19O,2.20X1.80*%
%ADD20C,1.20*%
%ADD21C,1.50*%
%ADD22R,1.50X1.50*%
%ADD23C,5.50*%
%ADD24C,2.20*%
%ADD25C,1.80*%
%ADD26C,0.80*%
%ADD27C,1.90*%
%ADD28C,4.00*%
%ADD29C,0.60*%
%ADD30C,0.25*%
%ADD31C,0.50*%
%ADD32C,0.20*%
%ADD33C,0.10*%
%ADD34R,1.70X1.50*%
%ADD35O,0.80X2.40*%
%ADD36R,1.50X1.70*%
%ADD37R,1.60X1.20*%
%ADD38O,2.40X2.00*%
%ADD39C,1.40*%
%ADD40C,1.70*%
%ADD41R,1.70X1.70*%
%ADD42C,5.70*%
%ADD43C,2.40*%
%ADD44C,2.00*%
D14*
X006434Y007801D02*
D03*
Y008391D02*
D03*
X006688Y007801D02*
D03*
Y008391D02*
D03*
X006942Y007801D02*
D03*
Y008391D02*
D03*
X007196Y007801D02*
D03*
Y008391D02*
D03*
X007450Y007801D02*
D03*
Y008391D02*
D03*
X005109Y007801D02*
D03*
Y008391D02*
D03*
X005363Y007801D02*
D03*
Y008391D02*
D03*
X005617Y007801D02*
D03*
Y008391D02*
D03*
X005871Y007801D02*
D03*
Y008391D02*
D03*
X006125Y007801D02*
D03*
Y008391D02*
D03*
D18*
X005062Y010062D02*
G03*
X004938Y009938I000000J-000125D01*
G01*
X004938Y007688D02*
G03*
X005062Y007562I000125J000000D01*
G01*
X009812Y007562D02*
G03*
X009938Y007688I000000J000125D01*
G01*
X009938Y009938D02*
G03*
X009812Y010062I-000125J000000D01*
G01*
X005062D02*
X009812D01*
X004938Y007688D02*
Y009938D01*
X005062Y007562D02*
X009812D01*
X009938Y007688D02*
Y009938D01*
D34*
X009212Y009555D02*
D03*
Y009745D02*
D03*
X008912Y009555D02*
D03*
Y009745D02*
D03*
X008625Y009555D02*
D03*
Y009745D02*
D03*
X005988Y009143D02*
D03*
Y009332D02*
D03*
X008262Y009745D02*
D03*
Y009555D02*
D03*
X008012Y008143D02*
D03*
Y008332D02*
D03*
X007088Y009305D02*
D03*
Y009495D02*
D03*
X006862Y009305D02*
D03*
Y009495D02*
D03*
X008850Y008255D02*
D03*
Y008445D02*
D03*
X009075Y008255D02*
D03*
Y008445D02*
D03*
D35*
X008865Y009253D02*
D03*
X008739D02*
D03*
X008611D02*
D03*
X008485D02*
D03*
X008865Y008772D02*
D03*
X008739D02*
D03*
X008611D02*
D03*
X008485D02*
D03*
D36*
X008005Y008775D02*
D03*
X008195D02*
D03*
X006407Y009050D02*
D03*
X006217D02*
D03*
D37*
X008012Y007760D02*
D03*
Y007940D02*
D03*
D38*
X005730Y009335D02*
D03*
Y008985D02*
D03*
X005730Y009685D02*
D03*
D39*
X007925Y009488D02*
D03*
X007425D02*
D03*
X009688Y009462D02*
D03*
Y009262D02*
D03*
Y009062D02*
D03*
D40*
X007762Y007833D02*
D03*
X009238Y009008D02*
D03*
D41*
X007762Y008088D02*
D03*
X009238Y009262D02*
D03*
D42*
X006438Y009562D02*
D03*
X008438Y008062D02*
D03*
D43*
X009688Y009672D02*
D03*
Y008853D02*
D03*
D44*
X009538Y008225D02*
D03*
Y007875D02*
D03*
M02*
