%FSAX42Y42*%
%MOMM*%
G71*
G01*
G75*
G04 Layer_Physical_Order=1*
G04 Layer_Color=255*
%ADD10R,1.50X1.30*%
%ADD11O,0.60X2.20*%
%ADD12R,1.30X1.50*%
%ADD13R,1.40X1.00*%
%ADD14R,1.02X1.90*%
%ADD15C,0.20*%
%ADD16C,1.00*%
%ADD17C,0.40*%
%ADD18C,0.25*%
%ADD19O,2.20X1.80*%
%ADD20C,1.20*%
%ADD21C,1.50*%
%ADD22R,1.50X1.50*%
%ADD23C,5.50*%
%ADD24C,2.20*%
%ADD25C,1.80*%
%ADD26C,0.80*%
G36*
X009938Y007562D02*
X007915D01*
X007911Y007575D01*
X007927Y007585D01*
X007939Y007604D01*
X007941Y007612D01*
X007834D01*
X007836Y007604D01*
X007848Y007585D01*
X007864Y007575D01*
X007860Y007562D01*
X007165D01*
X007161Y007575D01*
X007177Y007585D01*
X007189Y007604D01*
X007191Y007612D01*
X007084D01*
X007086Y007604D01*
X007098Y007585D01*
X007114Y007575D01*
X007110Y007562D01*
X006827D01*
X006824Y007575D01*
X006840Y007585D01*
X006852Y007604D01*
X006854Y007612D01*
X006746D01*
X006748Y007604D01*
X006760Y007585D01*
X006776Y007575D01*
X006773Y007562D01*
X006315D01*
X006311Y007575D01*
X006327Y007585D01*
X006339Y007604D01*
X006341Y007612D01*
X006234D01*
X006236Y007604D01*
X006248Y007585D01*
X006264Y007575D01*
X006260Y007562D01*
X005765D01*
X005761Y007575D01*
X005777Y007585D01*
X005789Y007604D01*
X005791Y007612D01*
X005684D01*
X005686Y007604D01*
X005698Y007585D01*
X005714Y007575D01*
X005710Y007562D01*
X005265D01*
X005261Y007575D01*
X005277Y007585D01*
X005289Y007604D01*
X005291Y007612D01*
X005184D01*
X005186Y007604D01*
X005198Y007585D01*
X005214Y007575D01*
X005210Y007562D01*
X004938D01*
Y010062D01*
X009729D01*
X009735Y010051D01*
X009723Y010034D01*
X009721Y010025D01*
X009829D01*
X009827Y010034D01*
X009815Y010052D01*
X009818Y010062D01*
X009938D01*
Y007562D01*
D02*
G37*
%LPC*%
G36*
X009642Y008212D02*
X009550D01*
Y008121D01*
X009565Y008123D01*
X009590Y008133D01*
X009612Y008150D01*
X009629Y008172D01*
X009640Y008198D01*
X009642Y008212D01*
D02*
G37*
G36*
X008837Y008242D02*
X008760D01*
Y008175D01*
X008837D01*
Y008242D01*
D02*
G37*
G36*
X008940D02*
X008863D01*
Y008175D01*
X008940D01*
Y008242D01*
D02*
G37*
G36*
X009387Y008091D02*
X009379Y008089D01*
X009360Y008077D01*
X009348Y008059D01*
X009346Y008050D01*
X009387D01*
Y008091D01*
D02*
G37*
G36*
X009413D02*
Y008050D01*
X009454D01*
X009452Y008059D01*
X009440Y008077D01*
X009421Y008089D01*
X009413Y008091D01*
D02*
G37*
G36*
X009525Y008212D02*
X009433D01*
X009435Y008198D01*
X009446Y008172D01*
X009463Y008150D01*
X009485Y008133D01*
X009510Y008123D01*
X009525Y008121D01*
Y008212D01*
D02*
G37*
G36*
X009062Y008242D02*
X008985D01*
Y008175D01*
X009062D01*
Y008242D01*
D02*
G37*
G36*
X009525Y008329D02*
X009510Y008327D01*
X009485Y008317D01*
X009463Y008300D01*
X009446Y008278D01*
X009435Y008252D01*
X009433Y008238D01*
X009525D01*
Y008329D01*
D02*
G37*
G36*
X009550D02*
Y008238D01*
X009642D01*
X009640Y008252D01*
X009629Y008278D01*
X009612Y008300D01*
X009590Y008317D01*
X009565Y008327D01*
X009550Y008329D01*
D02*
G37*
G36*
X008837Y008335D02*
X008760D01*
Y008268D01*
X008837D01*
Y008335D01*
D02*
G37*
G36*
X009165Y008242D02*
X009088D01*
Y008175D01*
X009165D01*
Y008242D01*
D02*
G37*
G36*
X007725Y008279D02*
X007716Y008277D01*
X007698Y008265D01*
X007686Y008246D01*
X007684Y008238D01*
X007725D01*
Y008279D01*
D02*
G37*
G36*
X007750D02*
Y008238D01*
X007791D01*
X007789Y008246D01*
X007777Y008265D01*
X007759Y008277D01*
X007750Y008279D01*
D02*
G37*
G36*
X007323Y008174D02*
X007303Y008171D01*
X007285Y008164D01*
X007270Y008151D01*
X007257Y008136D01*
X007250Y008118D01*
X007247Y008098D01*
X007250Y008078D01*
X007257Y008060D01*
X007270Y008045D01*
X007285Y008032D01*
X007303Y008025D01*
X007323Y008022D01*
X007343Y008025D01*
X007361Y008032D01*
X007376Y008045D01*
X007389Y008060D01*
X007396Y008078D01*
X007399Y008098D01*
X007396Y008118D01*
X007389Y008136D01*
X007376Y008151D01*
X007361Y008164D01*
X007343Y008171D01*
X007323Y008174D01*
D02*
G37*
G36*
X008962Y007962D02*
X008921D01*
X008923Y007954D01*
X008935Y007935D01*
X008954Y007923D01*
X008962Y007921D01*
Y007962D01*
D02*
G37*
G36*
X009029D02*
X008988D01*
Y007921D01*
X008996Y007923D01*
X009015Y007935D01*
X009027Y007954D01*
X009029Y007962D01*
D02*
G37*
G36*
X008103Y008222D02*
X007922D01*
Y008063D01*
X007977D01*
Y008005D01*
X007928D01*
Y007976D01*
X007900D01*
X007853Y008023D01*
Y008178D01*
X007785D01*
X007779Y008189D01*
X007789Y008204D01*
X007791Y008212D01*
X007684D01*
X007686Y008204D01*
X007696Y008189D01*
X007690Y008178D01*
X007672D01*
Y007997D01*
X007741D01*
X007749Y007992D01*
X007762Y007989D01*
X007785D01*
X007860Y007915D01*
X007871Y007907D01*
X007885Y007904D01*
X007928D01*
Y007875D01*
X008097D01*
Y008005D01*
X008048D01*
Y008063D01*
X008103D01*
Y008222D01*
D02*
G37*
G36*
X007450Y008038D02*
X007433Y008035D01*
X007417Y008029D01*
X007403Y008018D01*
X007392Y008004D01*
X007386Y007988D01*
X007383Y007971D01*
X007386Y007954D01*
X007392Y007938D01*
X007403Y007924D01*
X007404Y007923D01*
X007400Y007911D01*
X007384D01*
Y007814D01*
X007516D01*
Y007911D01*
X007500D01*
X007496Y007923D01*
X007497Y007924D01*
X007508Y007938D01*
X007514Y007954D01*
X007517Y007971D01*
X007514Y007988D01*
X007508Y008004D01*
X007497Y008018D01*
X007483Y008029D01*
X007467Y008035D01*
X007450Y008038D01*
D02*
G37*
G36*
X007750Y007923D02*
X007739Y007921D01*
X007717Y007912D01*
X007698Y007898D01*
X007684Y007879D01*
X007675Y007857D01*
X007673Y007846D01*
X007750D01*
Y007923D01*
D02*
G37*
G36*
X007775D02*
Y007846D01*
X007852D01*
X007850Y007857D01*
X007841Y007879D01*
X007827Y007898D01*
X007808Y007912D01*
X007786Y007921D01*
X007775Y007923D01*
D02*
G37*
G36*
X009387Y008025D02*
X009346D01*
X009348Y008016D01*
X009360Y007998D01*
X009379Y007986D01*
X009387Y007984D01*
Y008025D01*
D02*
G37*
G36*
X005236Y008174D02*
X005216Y008171D01*
X005198Y008164D01*
X005183Y008151D01*
X005170Y008136D01*
X005163Y008118D01*
X005160Y008098D01*
X005163Y008078D01*
X005170Y008060D01*
X005183Y008045D01*
X005198Y008032D01*
X005216Y008025D01*
X005236Y008022D01*
X005256Y008025D01*
X005274Y008032D01*
X005289Y008045D01*
X005302Y008060D01*
X005309Y008078D01*
X005312Y008098D01*
X005309Y008118D01*
X005302Y008136D01*
X005289Y008151D01*
X005274Y008164D01*
X005256Y008171D01*
X005236Y008174D01*
D02*
G37*
G36*
X005998D02*
X005978Y008171D01*
X005960Y008164D01*
X005945Y008151D01*
X005932Y008136D01*
X005925Y008118D01*
X005922Y008098D01*
X005925Y008078D01*
X005932Y008060D01*
X005945Y008045D01*
X005960Y008032D01*
X005978Y008025D01*
X005998Y008022D01*
X006018Y008025D01*
X006036Y008032D01*
X006051Y008045D01*
X006064Y008060D01*
X006071Y008078D01*
X006074Y008098D01*
X006071Y008118D01*
X006064Y008136D01*
X006051Y008151D01*
X006036Y008164D01*
X006018Y008171D01*
X005998Y008174D01*
D02*
G37*
G36*
X006561D02*
X006541Y008171D01*
X006523Y008164D01*
X006508Y008151D01*
X006495Y008136D01*
X006488Y008118D01*
X006485Y008098D01*
X006488Y008078D01*
X006495Y008060D01*
X006508Y008045D01*
X006523Y008032D01*
X006541Y008025D01*
X006561Y008022D01*
X006581Y008025D01*
X006599Y008032D01*
X006614Y008045D01*
X006627Y008060D01*
X006634Y008078D01*
X006637Y008098D01*
X006634Y008118D01*
X006627Y008136D01*
X006614Y008151D01*
X006599Y008164D01*
X006581Y008171D01*
X006561Y008174D01*
D02*
G37*
G36*
X009454Y008025D02*
X009413D01*
Y007984D01*
X009421Y007986D01*
X009440Y007998D01*
X009452Y008016D01*
X009454Y008025D01*
D02*
G37*
G36*
X008962Y008029D02*
X008954Y008027D01*
X008935Y008015D01*
X008923Y007996D01*
X008921Y007988D01*
X008962D01*
Y008029D01*
D02*
G37*
G36*
X008988D02*
Y007988D01*
X009029D01*
X009027Y007996D01*
X009015Y008015D01*
X008996Y008027D01*
X008988Y008029D01*
D02*
G37*
G36*
X009300Y008700D02*
X009259D01*
X009261Y008691D01*
X009273Y008673D01*
X009291Y008661D01*
X009300Y008659D01*
Y008700D01*
D02*
G37*
G36*
X009366D02*
X009325D01*
Y008659D01*
X009334Y008661D01*
X009352Y008673D01*
X009364Y008691D01*
X009366Y008700D01*
D02*
G37*
G36*
X006462Y008754D02*
X006454Y008752D01*
X006435Y008740D01*
X006423Y008721D01*
X006421Y008713D01*
X006462D01*
Y008754D01*
D02*
G37*
G36*
X008611Y008898D02*
X008594Y008895D01*
X008579Y008885D01*
X008569Y008870D01*
X008566Y008853D01*
Y008693D01*
X008569Y008675D01*
X008571Y008672D01*
X008530Y008630D01*
X008525Y008631D01*
X008504Y008627D01*
X008485Y008615D01*
X008473Y008596D01*
X008469Y008575D01*
X008473Y008554D01*
X008485Y008535D01*
X008504Y008523D01*
X008525Y008519D01*
X008546Y008523D01*
X008565Y008535D01*
X008577Y008554D01*
X008581Y008575D01*
X008580Y008580D01*
X008637Y008636D01*
X008644Y008648D01*
X008647Y008661D01*
X008647Y008661D01*
Y008661D01*
X008654Y008675D01*
X008654Y008675D01*
X008654Y008675D01*
X008657Y008693D01*
Y008853D01*
X008654Y008870D01*
X008644Y008885D01*
X008629Y008895D01*
X008611Y008898D01*
D02*
G37*
G36*
X006462Y008687D02*
X006421D01*
X006423Y008679D01*
X006435Y008660D01*
X006454Y008648D01*
X006462Y008646D01*
Y008687D01*
D02*
G37*
G36*
X006529D02*
X006488D01*
Y008646D01*
X006496Y008648D01*
X006515Y008660D01*
X006527Y008679D01*
X006529Y008687D01*
D02*
G37*
G36*
X006488Y008754D02*
Y008713D01*
X006529D01*
X006527Y008721D01*
X006515Y008740D01*
X006496Y008752D01*
X006488Y008754D01*
D02*
G37*
G36*
X005787Y008787D02*
X005746D01*
X005748Y008779D01*
X005760Y008760D01*
X005779Y008748D01*
X005787Y008746D01*
Y008787D01*
D02*
G37*
G36*
X005854D02*
X005813D01*
Y008746D01*
X005821Y008748D01*
X005840Y008760D01*
X005852Y008779D01*
X005854Y008787D01*
D02*
G37*
G36*
X009000Y008800D02*
X008959D01*
X008961Y008791D01*
X008973Y008773D01*
X008991Y008761D01*
X009000Y008759D01*
Y008800D01*
D02*
G37*
G36*
X009300Y008766D02*
X009291Y008764D01*
X009273Y008752D01*
X009261Y008734D01*
X009259Y008725D01*
X009300D01*
Y008766D01*
D02*
G37*
G36*
X009325D02*
Y008725D01*
X009366D01*
X009364Y008734D01*
X009352Y008752D01*
X009334Y008764D01*
X009325Y008766D01*
D02*
G37*
G36*
X009688Y009138D02*
X009668Y009136D01*
X009650Y009128D01*
X009634Y009116D01*
X009622Y009100D01*
X009614Y009082D01*
X009612Y009062D01*
X009614Y009043D01*
X009622Y009025D01*
X009634Y009009D01*
X009650Y008997D01*
X009668Y008989D01*
X009671Y008989D01*
Y008976D01*
X009655Y008974D01*
X009624Y008962D01*
X009598Y008942D01*
X009578Y008916D01*
X009566Y008885D01*
X009561Y008853D01*
X009566Y008820D01*
X009578Y008789D01*
X009598Y008763D01*
X009624Y008743D01*
X009655Y008731D01*
X009688Y008726D01*
X009720Y008731D01*
X009751Y008743D01*
X009777Y008763D01*
X009797Y008789D01*
X009809Y008820D01*
X009814Y008853D01*
X009809Y008885D01*
X009797Y008916D01*
X009777Y008942D01*
X009751Y008962D01*
X009720Y008974D01*
X009704Y008976D01*
Y008989D01*
X009707Y008989D01*
X009725Y008997D01*
X009741Y009009D01*
X009753Y009025D01*
X009761Y009043D01*
X009763Y009062D01*
X009761Y009082D01*
X009753Y009100D01*
X009741Y009116D01*
X009725Y009128D01*
X009707Y009136D01*
X009688Y009138D01*
D02*
G37*
G36*
X007775Y008541D02*
Y008500D01*
X007816D01*
X007814Y008509D01*
X007802Y008527D01*
X007784Y008539D01*
X007775Y008541D01*
D02*
G37*
G36*
X008612Y008362D02*
X008571D01*
X008573Y008354D01*
X008585Y008335D01*
X008604Y008323D01*
X008612Y008321D01*
Y008362D01*
D02*
G37*
G36*
X008679D02*
X008638D01*
Y008321D01*
X008646Y008323D01*
X008665Y008335D01*
X008677Y008354D01*
X008679Y008362D01*
D02*
G37*
G36*
X008739Y008898D02*
X008721Y008895D01*
X008706Y008885D01*
X008696Y008870D01*
X008693Y008853D01*
Y008693D01*
X008696Y008675D01*
X008703Y008665D01*
Y008599D01*
X008703Y008599D01*
X008703D01*
X008706Y008585D01*
X008713Y008574D01*
X008761Y008526D01*
X008760Y008525D01*
X008760D01*
X008760Y008525D01*
Y008365D01*
X008940D01*
Y008525D01*
X008863D01*
X008774Y008614D01*
Y008665D01*
X008781Y008675D01*
X008784Y008693D01*
Y008853D01*
X008781Y008870D01*
X008771Y008885D01*
X008756Y008895D01*
X008739Y008898D01*
D02*
G37*
G36*
X008940Y008335D02*
X008863D01*
Y008268D01*
X008940D01*
Y008335D01*
D02*
G37*
G36*
X009062D02*
X008985D01*
Y008268D01*
X009062D01*
Y008335D01*
D02*
G37*
G36*
X009165D02*
X009088D01*
Y008268D01*
X009165D01*
Y008335D01*
D02*
G37*
G36*
X008865Y008898D02*
X008848Y008895D01*
X008833Y008885D01*
X008823Y008870D01*
X008820Y008853D01*
Y008693D01*
X008823Y008675D01*
X008830Y008665D01*
Y008622D01*
X008833Y008608D01*
X008840Y008597D01*
X008887Y008550D01*
X008887D01*
X008887Y008550D01*
X008887D01*
X008887Y008550D01*
Y008550D01*
X008887Y008550D01*
Y008550D01*
X008899Y008542D01*
X008912Y008539D01*
X009002D01*
X009009Y008529D01*
X009008Y008525D01*
X008985D01*
Y008365D01*
X009165D01*
Y008525D01*
X009111D01*
Y008525D01*
X009108Y008539D01*
X009100Y008550D01*
X009050Y008600D01*
X009039Y008608D01*
X009025Y008611D01*
X008927D01*
X008901Y008637D01*
Y008665D01*
X008908Y008675D01*
X008911Y008693D01*
Y008853D01*
X008908Y008870D01*
X008898Y008885D01*
X008883Y008895D01*
X008865Y008898D01*
D02*
G37*
G36*
X007816Y008475D02*
X007775D01*
Y008434D01*
X007784Y008436D01*
X007802Y008448D01*
X007814Y008466D01*
X007816Y008475D01*
D02*
G37*
G36*
X007425Y009563D02*
X007405Y009561D01*
X007387Y009553D01*
X007372Y009541D01*
X007359Y009525D01*
X007352Y009507D01*
X007349Y009488D01*
X007352Y009468D01*
X007359Y009450D01*
Y008457D01*
X007262D01*
Y008501D01*
X007130D01*
Y008457D01*
X007008D01*
Y008501D01*
X006876D01*
Y008457D01*
X006754D01*
Y008501D01*
X006622D01*
Y008457D01*
X006500D01*
Y008501D01*
X006368D01*
Y008457D01*
X006191D01*
Y008501D01*
X006059D01*
Y008457D01*
X005937D01*
Y008501D01*
X005805D01*
Y008457D01*
X005683D01*
Y008501D01*
X005551D01*
Y008457D01*
X005429D01*
Y008501D01*
X005297D01*
Y008457D01*
X005175D01*
Y008501D01*
X005043D01*
Y008281D01*
X005054D01*
X005060Y008270D01*
X005051Y008258D01*
X005045Y008242D01*
X005042Y008225D01*
X005045Y008208D01*
X005051Y008192D01*
X005062Y008178D01*
X005076Y008167D01*
X005092Y008161D01*
X005109Y008158D01*
X005126Y008161D01*
X005142Y008167D01*
X005156Y008178D01*
X005167Y008192D01*
X005173Y008208D01*
X005176Y008225D01*
X005173Y008242D01*
X005167Y008258D01*
X005156Y008272D01*
X005159Y008281D01*
X005175D01*
Y008325D01*
X005297D01*
Y008281D01*
X005308D01*
X005314Y008270D01*
X005305Y008258D01*
X005299Y008242D01*
X005296Y008225D01*
X005299Y008208D01*
X005305Y008192D01*
X005316Y008178D01*
X005330Y008167D01*
X005346Y008161D01*
X005363Y008158D01*
X005380Y008161D01*
X005396Y008167D01*
X005410Y008178D01*
X005421Y008192D01*
X005427Y008208D01*
X005430Y008225D01*
X005427Y008242D01*
X005421Y008258D01*
X005410Y008272D01*
X005413Y008281D01*
X005429D01*
Y008325D01*
X005551D01*
Y008281D01*
X005562D01*
X005568Y008270D01*
X005559Y008258D01*
X005553Y008242D01*
X005550Y008225D01*
X005553Y008208D01*
X005559Y008192D01*
X005570Y008178D01*
X005584Y008167D01*
X005600Y008161D01*
X005617Y008158D01*
X005634Y008161D01*
X005650Y008167D01*
X005664Y008178D01*
X005675Y008192D01*
X005681Y008208D01*
X005684Y008225D01*
X005681Y008242D01*
X005675Y008258D01*
X005664Y008272D01*
X005667Y008281D01*
X005683D01*
Y008325D01*
X005805D01*
Y008281D01*
X005816D01*
X005822Y008270D01*
X005813Y008258D01*
X005807Y008242D01*
X005804Y008225D01*
X005807Y008208D01*
X005813Y008192D01*
X005824Y008178D01*
X005838Y008167D01*
X005854Y008161D01*
X005871Y008158D01*
X005888Y008161D01*
X005904Y008167D01*
X005918Y008178D01*
X005929Y008192D01*
X005935Y008208D01*
X005938Y008225D01*
X005935Y008242D01*
X005929Y008258D01*
X005918Y008272D01*
X005921Y008281D01*
X005937D01*
Y008325D01*
X006059D01*
Y008281D01*
X006070D01*
X006076Y008270D01*
X006067Y008258D01*
X006061Y008242D01*
X006058Y008225D01*
X006061Y008208D01*
X006067Y008192D01*
X006078Y008178D01*
X006092Y008167D01*
X006108Y008161D01*
X006125Y008158D01*
X006142Y008161D01*
X006158Y008167D01*
X006172Y008178D01*
X006183Y008192D01*
X006189Y008208D01*
X006192Y008225D01*
X006189Y008242D01*
X006183Y008258D01*
X006172Y008272D01*
X006175Y008281D01*
X006191D01*
Y008325D01*
X006368D01*
Y008281D01*
X006379D01*
X006385Y008270D01*
X006376Y008258D01*
X006370Y008242D01*
X006367Y008225D01*
X006370Y008208D01*
X006376Y008192D01*
X006387Y008178D01*
X006401Y008167D01*
X006417Y008161D01*
X006434Y008158D01*
X006451Y008161D01*
X006467Y008167D01*
X006481Y008178D01*
X006492Y008192D01*
X006498Y008208D01*
X006501Y008225D01*
X006498Y008242D01*
X006492Y008258D01*
X006481Y008272D01*
X006484Y008281D01*
X006500D01*
Y008325D01*
X006622D01*
Y008281D01*
X006633D01*
X006639Y008270D01*
X006630Y008258D01*
X006624Y008242D01*
X006621Y008225D01*
X006624Y008208D01*
X006630Y008192D01*
X006641Y008178D01*
X006655Y008167D01*
X006671Y008161D01*
X006688Y008158D01*
X006705Y008161D01*
X006721Y008167D01*
X006735Y008178D01*
X006746Y008192D01*
X006752Y008208D01*
X006755Y008225D01*
X006752Y008242D01*
X006746Y008258D01*
X006735Y008272D01*
X006738Y008281D01*
X006754D01*
Y008325D01*
X006876D01*
Y008281D01*
X006887D01*
X006893Y008270D01*
X006884Y008258D01*
X006878Y008242D01*
X006875Y008225D01*
X006878Y008208D01*
X006884Y008192D01*
X006895Y008178D01*
X006909Y008167D01*
X006925Y008161D01*
X006942Y008158D01*
X006959Y008161D01*
X006975Y008167D01*
X006989Y008178D01*
X007000Y008192D01*
X007006Y008208D01*
X007009Y008225D01*
X007006Y008242D01*
X007000Y008258D01*
X006989Y008272D01*
X006992Y008281D01*
X007008D01*
Y008325D01*
X007130D01*
Y008281D01*
X007141D01*
X007147Y008270D01*
X007138Y008258D01*
X007132Y008242D01*
X007129Y008225D01*
X007132Y008208D01*
X007138Y008192D01*
X007149Y008178D01*
X007163Y008167D01*
X007179Y008161D01*
X007196Y008158D01*
X007213Y008161D01*
X007229Y008167D01*
X007243Y008178D01*
X007254Y008192D01*
X007260Y008208D01*
X007263Y008225D01*
X007260Y008242D01*
X007254Y008258D01*
X007243Y008272D01*
X007246Y008281D01*
X007262D01*
Y008325D01*
X007384D01*
Y008281D01*
X007395D01*
X007401Y008270D01*
X007392Y008258D01*
X007386Y008242D01*
X007383Y008225D01*
X007386Y008208D01*
X007392Y008192D01*
X007403Y008178D01*
X007417Y008167D01*
X007433Y008161D01*
X007450Y008158D01*
X007467Y008161D01*
X007483Y008167D01*
X007497Y008178D01*
X007508Y008192D01*
X007514Y008208D01*
X007517Y008225D01*
X007514Y008242D01*
X007508Y008258D01*
X007497Y008272D01*
X007500Y008281D01*
X007516D01*
Y008355D01*
X007544D01*
X007592Y008307D01*
X007604Y008300D01*
X007618Y008297D01*
X007922D01*
Y008253D01*
X008103D01*
Y008412D01*
X007922D01*
Y008368D01*
X007632D01*
X007584Y008416D01*
X007573Y008424D01*
X007559Y008427D01*
X007516D01*
Y008501D01*
X007491D01*
Y009450D01*
X007498Y009468D01*
X007501Y009488D01*
X007498Y009507D01*
X007491Y009525D01*
X007478Y009541D01*
X007463Y009553D01*
X007445Y009561D01*
X007425Y009563D01*
D02*
G37*
G36*
X007750Y008541D02*
X007741Y008539D01*
X007723Y008527D01*
X007711Y008509D01*
X007709Y008500D01*
X007750D01*
Y008541D01*
D02*
G37*
G36*
X008612Y008429D02*
X008604Y008427D01*
X008585Y008415D01*
X008573Y008396D01*
X008571Y008388D01*
X008612D01*
Y008429D01*
D02*
G37*
G36*
X008638D02*
Y008388D01*
X008679D01*
X008677Y008396D01*
X008665Y008415D01*
X008646Y008427D01*
X008638Y008429D01*
D02*
G37*
G36*
X007750Y008475D02*
X007709D01*
X007711Y008466D01*
X007723Y008448D01*
X007741Y008436D01*
X007750Y008434D01*
Y008475D01*
D02*
G37*
G36*
X005683Y007788D02*
X005630D01*
Y007691D01*
X005683D01*
Y007788D01*
D02*
G37*
G36*
X005858D02*
X005805D01*
Y007691D01*
X005858D01*
Y007788D01*
D02*
G37*
G36*
X005937D02*
X005884D01*
Y007691D01*
X005937D01*
Y007788D01*
D02*
G37*
G36*
X005350D02*
X005297D01*
Y007691D01*
X005350D01*
Y007788D01*
D02*
G37*
G36*
X005429D02*
X005376D01*
Y007691D01*
X005429D01*
Y007788D01*
D02*
G37*
G36*
X005604D02*
X005551D01*
Y007691D01*
X005604D01*
Y007788D01*
D02*
G37*
G36*
X006112D02*
X006059D01*
Y007691D01*
X006112D01*
Y007788D01*
D02*
G37*
G36*
X006675D02*
X006622D01*
Y007691D01*
X006675D01*
Y007788D01*
D02*
G37*
G36*
X006754D02*
X006701D01*
Y007691D01*
X006754D01*
Y007788D01*
D02*
G37*
G36*
X006929D02*
X006876D01*
Y007691D01*
X006929D01*
Y007788D01*
D02*
G37*
G36*
X006191D02*
X006138D01*
Y007691D01*
X006191D01*
Y007788D01*
D02*
G37*
G36*
X006421D02*
X006368D01*
Y007691D01*
X006421D01*
Y007788D01*
D02*
G37*
G36*
X006500D02*
X006447D01*
Y007691D01*
X006500D01*
Y007788D01*
D02*
G37*
G36*
X005175D02*
X005122D01*
Y007691D01*
X005175D01*
Y007788D01*
D02*
G37*
G36*
X005750Y007679D02*
Y007638D01*
X005791D01*
X005789Y007646D01*
X005777Y007665D01*
X005759Y007677D01*
X005750Y007679D01*
D02*
G37*
G36*
X006275D02*
X006266Y007677D01*
X006248Y007665D01*
X006236Y007646D01*
X006234Y007638D01*
X006275D01*
Y007679D01*
D02*
G37*
G36*
X006300D02*
Y007638D01*
X006341D01*
X006339Y007646D01*
X006327Y007665D01*
X006309Y007677D01*
X006300Y007679D01*
D02*
G37*
G36*
X005225D02*
X005216Y007677D01*
X005198Y007665D01*
X005186Y007646D01*
X005184Y007638D01*
X005225D01*
Y007679D01*
D02*
G37*
G36*
X005250D02*
Y007638D01*
X005291D01*
X005289Y007646D01*
X005277Y007665D01*
X005259Y007677D01*
X005250Y007679D01*
D02*
G37*
G36*
X005725D02*
X005716Y007677D01*
X005698Y007665D01*
X005686Y007646D01*
X005684Y007638D01*
X005725D01*
Y007679D01*
D02*
G37*
G36*
X006787D02*
X006779Y007677D01*
X006760Y007665D01*
X006748Y007646D01*
X006746Y007638D01*
X006787D01*
Y007679D01*
D02*
G37*
G36*
X007875D02*
X007866Y007677D01*
X007848Y007665D01*
X007836Y007646D01*
X007834Y007638D01*
X007875D01*
Y007679D01*
D02*
G37*
G36*
X008000Y007747D02*
X007928D01*
Y007720D01*
X007922Y007716D01*
X007913Y007714D01*
X007904Y007708D01*
X007899Y007700D01*
X007897Y007690D01*
D01*
X007888Y007681D01*
X007900Y007679D01*
X007900Y007678D01*
Y007638D01*
X007941D01*
X007939Y007646D01*
X007927Y007665D01*
X007927Y007665D01*
X007932Y007666D01*
X007941Y007672D01*
X007946Y007680D01*
X007948Y007690D01*
D01*
X007952Y007695D01*
X008000D01*
Y007747D01*
D02*
G37*
G36*
X005096Y007788D02*
X005043D01*
Y007691D01*
X005096D01*
Y007788D01*
D02*
G37*
G36*
X006813Y007679D02*
Y007638D01*
X006854D01*
X006852Y007646D01*
X006840Y007665D01*
X006821Y007677D01*
X006813Y007679D01*
D02*
G37*
G36*
X007125D02*
X007116Y007677D01*
X007098Y007665D01*
X007086Y007646D01*
X007084Y007638D01*
X007125D01*
Y007679D01*
D02*
G37*
G36*
X007183Y007788D02*
X007130D01*
Y007691D01*
X007130D01*
Y007680D01*
X007138Y007681D01*
X007150Y007679D01*
Y007638D01*
X007191D01*
X007189Y007646D01*
X007177Y007665D01*
X007159Y007677D01*
X007151Y007678D01*
X007152Y007691D01*
X007183D01*
Y007788D01*
D02*
G37*
G36*
X009700Y007816D02*
Y007775D01*
X009741D01*
X009739Y007784D01*
X009727Y007802D01*
X009709Y007814D01*
X009700Y007816D01*
D02*
G37*
G36*
X005109Y008038D02*
X005092Y008035D01*
X005076Y008029D01*
X005062Y008018D01*
X005051Y008004D01*
X005045Y007988D01*
X005042Y007971D01*
X005045Y007954D01*
X005051Y007938D01*
X005062Y007924D01*
X005063Y007923D01*
X005059Y007911D01*
X005043D01*
Y007814D01*
X005175D01*
Y007911D01*
X005159D01*
X005155Y007923D01*
X005156Y007924D01*
X005167Y007938D01*
X005173Y007954D01*
X005176Y007971D01*
X005173Y007988D01*
X005167Y008004D01*
X005156Y008018D01*
X005142Y008029D01*
X005126Y008035D01*
X005109Y008038D01*
D02*
G37*
G36*
X005363D02*
X005346Y008035D01*
X005330Y008029D01*
X005316Y008018D01*
X005305Y008004D01*
X005299Y007988D01*
X005296Y007971D01*
X005299Y007954D01*
X005305Y007938D01*
X005316Y007924D01*
X005317Y007923D01*
X005313Y007911D01*
X005297D01*
Y007814D01*
X005429D01*
Y007911D01*
X005413D01*
X005409Y007923D01*
X005410Y007924D01*
X005421Y007938D01*
X005427Y007954D01*
X005430Y007971D01*
X005427Y007988D01*
X005421Y008004D01*
X005410Y008018D01*
X005396Y008029D01*
X005380Y008035D01*
X005363Y008038D01*
D02*
G37*
G36*
X008000Y007825D02*
X007928D01*
Y007773D01*
X008000D01*
Y007825D01*
D02*
G37*
G36*
X008097D02*
X008025D01*
Y007773D01*
X008097D01*
Y007825D01*
D02*
G37*
G36*
X009675Y007816D02*
X009666Y007814D01*
X009648Y007802D01*
X009636Y007784D01*
X009634Y007775D01*
X009675D01*
Y007816D01*
D02*
G37*
G36*
X005617Y008038D02*
X005600Y008035D01*
X005584Y008029D01*
X005570Y008018D01*
X005559Y008004D01*
X005553Y007988D01*
X005550Y007971D01*
X005553Y007954D01*
X005559Y007938D01*
X005570Y007924D01*
X005571Y007923D01*
X005567Y007911D01*
X005551D01*
Y007814D01*
X005683D01*
Y007911D01*
X005667D01*
X005663Y007923D01*
X005664Y007924D01*
X005675Y007938D01*
X005681Y007954D01*
X005684Y007971D01*
X005681Y007988D01*
X005675Y008004D01*
X005664Y008018D01*
X005650Y008029D01*
X005634Y008035D01*
X005617Y008038D01*
D02*
G37*
G36*
X006688D02*
X006671Y008035D01*
X006655Y008029D01*
X006641Y008018D01*
X006630Y008004D01*
X006624Y007988D01*
X006621Y007971D01*
X006624Y007954D01*
X006630Y007938D01*
X006641Y007924D01*
X006642Y007923D01*
X006638Y007911D01*
X006622D01*
Y007814D01*
X006754D01*
Y007911D01*
X006738D01*
X006734Y007923D01*
X006735Y007924D01*
X006746Y007938D01*
X006752Y007954D01*
X006755Y007971D01*
X006752Y007988D01*
X006746Y008004D01*
X006735Y008018D01*
X006721Y008029D01*
X006705Y008035D01*
X006688Y008038D01*
D02*
G37*
G36*
X006942D02*
X006925Y008035D01*
X006909Y008029D01*
X006895Y008018D01*
X006884Y008004D01*
X006878Y007988D01*
X006875Y007971D01*
X006878Y007954D01*
X006884Y007938D01*
X006895Y007924D01*
X006896Y007923D01*
X006892Y007911D01*
X006876D01*
Y007814D01*
X007008D01*
Y007911D01*
X006992D01*
X006988Y007923D01*
X006989Y007924D01*
X007000Y007938D01*
X007006Y007954D01*
X007009Y007971D01*
X007006Y007988D01*
X007000Y008004D01*
X006989Y008018D01*
X006975Y008029D01*
X006959Y008035D01*
X006942Y008038D01*
D02*
G37*
G36*
X007196D02*
X007179Y008035D01*
X007163Y008029D01*
X007149Y008018D01*
X007138Y008004D01*
X007132Y007988D01*
X007129Y007971D01*
X007132Y007954D01*
X007138Y007938D01*
X007149Y007924D01*
X007150Y007923D01*
X007146Y007911D01*
X007130D01*
Y007814D01*
X007262D01*
Y007911D01*
X007246D01*
X007242Y007923D01*
X007243Y007924D01*
X007254Y007938D01*
X007260Y007954D01*
X007263Y007971D01*
X007260Y007988D01*
X007254Y008004D01*
X007243Y008018D01*
X007229Y008029D01*
X007213Y008035D01*
X007196Y008038D01*
D02*
G37*
G36*
X005871D02*
X005854Y008035D01*
X005838Y008029D01*
X005824Y008018D01*
X005813Y008004D01*
X005807Y007988D01*
X005804Y007971D01*
X005807Y007954D01*
X005813Y007938D01*
X005824Y007924D01*
X005825Y007923D01*
X005821Y007911D01*
X005805D01*
Y007814D01*
X005937D01*
Y007911D01*
X005921D01*
X005917Y007923D01*
X005918Y007924D01*
X005929Y007938D01*
X005935Y007954D01*
X005938Y007971D01*
X005935Y007988D01*
X005929Y008004D01*
X005918Y008018D01*
X005904Y008029D01*
X005888Y008035D01*
X005871Y008038D01*
D02*
G37*
G36*
X006125D02*
X006108Y008035D01*
X006092Y008029D01*
X006078Y008018D01*
X006067Y008004D01*
X006061Y007988D01*
X006058Y007971D01*
X006061Y007954D01*
X006067Y007938D01*
X006078Y007924D01*
X006079Y007923D01*
X006075Y007911D01*
X006059D01*
Y007814D01*
X006191D01*
Y007911D01*
X006175D01*
X006171Y007923D01*
X006172Y007924D01*
X006183Y007938D01*
X006189Y007954D01*
X006192Y007971D01*
X006189Y007988D01*
X006183Y008004D01*
X006172Y008018D01*
X006158Y008029D01*
X006142Y008035D01*
X006125Y008038D01*
D02*
G37*
G36*
X006434D02*
X006417Y008035D01*
X006401Y008029D01*
X006387Y008018D01*
X006376Y008004D01*
X006370Y007988D01*
X006367Y007971D01*
X006370Y007954D01*
X006376Y007938D01*
X006387Y007924D01*
X006388Y007923D01*
X006384Y007911D01*
X006368D01*
Y007814D01*
X006500D01*
Y007911D01*
X006484D01*
X006480Y007923D01*
X006481Y007924D01*
X006492Y007938D01*
X006498Y007954D01*
X006501Y007971D01*
X006498Y007988D01*
X006492Y008004D01*
X006481Y008018D01*
X006467Y008029D01*
X006451Y008035D01*
X006434Y008038D01*
D02*
G37*
G36*
X008438Y008353D02*
X008392Y008350D01*
X008348Y008339D01*
X008305Y008322D01*
X008267Y008298D01*
X008232Y008268D01*
X008202Y008233D01*
X008178Y008195D01*
X008161Y008152D01*
X008150Y008108D01*
X008147Y008062D01*
X008150Y008017D01*
X008161Y007973D01*
X008178Y007930D01*
X008202Y007892D01*
X008232Y007857D01*
X008267Y007827D01*
X008305Y007803D01*
X008348Y007786D01*
X008392Y007775D01*
X008438Y007772D01*
X008483Y007775D01*
X008527Y007786D01*
X008570Y007803D01*
X008608Y007827D01*
X008643Y007857D01*
X008673Y007892D01*
X008697Y007930D01*
X008714Y007973D01*
X008725Y008017D01*
X008728Y008062D01*
X008725Y008108D01*
X008714Y008152D01*
X008697Y008195D01*
X008673Y008233D01*
X008643Y008268D01*
X008608Y008298D01*
X008570Y008322D01*
X008527Y008339D01*
X008483Y008350D01*
X008438Y008353D01*
D02*
G37*
G36*
X007516Y007788D02*
X007463D01*
Y007691D01*
X007516D01*
Y007788D01*
D02*
G37*
G36*
X008097Y007747D02*
X008025D01*
Y007695D01*
X008097D01*
Y007747D01*
D02*
G37*
G36*
X009312Y007737D02*
X009271D01*
X009273Y007729D01*
X009285Y007710D01*
X009304Y007698D01*
X009312Y007696D01*
Y007737D01*
D02*
G37*
G36*
X007008Y007788D02*
X006955D01*
Y007691D01*
X007008D01*
Y007788D01*
D02*
G37*
G36*
X007262D02*
X007209D01*
Y007691D01*
X007262D01*
Y007788D01*
D02*
G37*
G36*
X007437D02*
X007384D01*
Y007691D01*
X007437D01*
Y007788D01*
D02*
G37*
G36*
X009379Y007737D02*
X009338D01*
Y007696D01*
X009346Y007698D01*
X009365Y007710D01*
X009377Y007729D01*
X009379Y007737D01*
D02*
G37*
G36*
X007852Y007821D02*
X007775D01*
Y007744D01*
X007786Y007746D01*
X007808Y007755D01*
X007827Y007769D01*
X007841Y007788D01*
X007850Y007810D01*
X007852Y007821D01*
D02*
G37*
G36*
X009312Y007804D02*
X009304Y007802D01*
X009285Y007790D01*
X009273Y007771D01*
X009271Y007763D01*
X009312D01*
Y007804D01*
D02*
G37*
G36*
X009338D02*
Y007763D01*
X009379D01*
X009377Y007771D01*
X009365Y007790D01*
X009346Y007802D01*
X009338Y007804D01*
D02*
G37*
G36*
X009675Y007750D02*
X009634D01*
X009636Y007741D01*
X009648Y007723D01*
X009666Y007711D01*
X009675Y007709D01*
Y007750D01*
D02*
G37*
G36*
X009741D02*
X009700D01*
Y007709D01*
X009709Y007711D01*
X009727Y007723D01*
X009739Y007741D01*
X009741Y007750D01*
D02*
G37*
G36*
X007750Y007821D02*
X007673D01*
X007675Y007810D01*
X007684Y007788D01*
X007698Y007769D01*
X007717Y007755D01*
X007739Y007746D01*
X007750Y007744D01*
Y007821D01*
D02*
G37*
G36*
X007178Y009385D02*
X007100D01*
Y009318D01*
X007178D01*
Y009385D01*
D02*
G37*
G36*
X008950Y009387D02*
X008909D01*
X008911Y009379D01*
X008923Y009360D01*
X008941Y009348D01*
X008950Y009346D01*
Y009387D01*
D02*
G37*
G36*
X009016D02*
X008975D01*
Y009346D01*
X008984Y009348D01*
X009002Y009360D01*
X009014Y009379D01*
X009016Y009387D01*
D02*
G37*
G36*
X006850Y009385D02*
X006772D01*
Y009318D01*
X006850D01*
Y009385D01*
D02*
G37*
G36*
X006953D02*
X006875D01*
Y009318D01*
X006953D01*
Y009385D01*
D02*
G37*
G36*
X007075D02*
X006997D01*
Y009318D01*
X007075D01*
Y009385D01*
D02*
G37*
G36*
X009100Y009400D02*
X009059D01*
X009061Y009391D01*
X009073Y009373D01*
X009091Y009361D01*
X009100Y009359D01*
Y009400D01*
D02*
G37*
G36*
X009391Y009437D02*
X009350D01*
Y009396D01*
X009359Y009398D01*
X009377Y009410D01*
X009389Y009429D01*
X009391Y009437D01*
D02*
G37*
G36*
X007925Y009563D02*
X007905Y009561D01*
X007887Y009553D01*
X007872Y009541D01*
X007859Y009525D01*
X007852Y009507D01*
X007849Y009488D01*
X007852Y009468D01*
X007859Y009450D01*
X007872Y009434D01*
X007887Y009422D01*
X007905Y009414D01*
X007925Y009412D01*
X007945Y009414D01*
X007963Y009422D01*
X007978Y009434D01*
X007991Y009450D01*
X007998Y009468D01*
X008001Y009488D01*
X007998Y009507D01*
X007991Y009525D01*
X007978Y009541D01*
X007963Y009553D01*
X007945Y009561D01*
X007925Y009563D01*
D02*
G37*
G36*
X008950Y009454D02*
X008941Y009452D01*
X008923Y009440D01*
X008911Y009421D01*
X008909Y009413D01*
X008950D01*
Y009454D01*
D02*
G37*
G36*
X009166Y009400D02*
X009125D01*
Y009359D01*
X009134Y009361D01*
X009152Y009373D01*
X009164Y009391D01*
X009166Y009400D01*
D02*
G37*
G36*
X009688Y009799D02*
X009655Y009794D01*
X009624Y009782D01*
X009598Y009762D01*
X009578Y009736D01*
X009566Y009705D01*
X009561Y009672D01*
X009566Y009640D01*
X009578Y009609D01*
X009598Y009583D01*
X009624Y009563D01*
X009655Y009551D01*
X009671Y009549D01*
Y009536D01*
X009668Y009536D01*
X009650Y009528D01*
X009634Y009516D01*
X009622Y009500D01*
X009614Y009482D01*
X009612Y009462D01*
X009614Y009443D01*
X009622Y009425D01*
X009634Y009409D01*
X009650Y009397D01*
X009668Y009389D01*
X009688Y009387D01*
X009707Y009389D01*
X009725Y009397D01*
X009741Y009409D01*
X009753Y009425D01*
X009761Y009443D01*
X009763Y009462D01*
X009761Y009482D01*
X009753Y009500D01*
X009741Y009516D01*
X009725Y009528D01*
X009707Y009536D01*
X009704Y009536D01*
Y009549D01*
X009720Y009551D01*
X009751Y009563D01*
X009777Y009583D01*
X009797Y009609D01*
X009809Y009640D01*
X009814Y009672D01*
X009809Y009705D01*
X009797Y009736D01*
X009777Y009762D01*
X009751Y009782D01*
X009720Y009794D01*
X009688Y009799D01*
D02*
G37*
G36*
X009325Y009437D02*
X009284D01*
X009286Y009429D01*
X009298Y009410D01*
X009316Y009398D01*
X009325Y009396D01*
Y009437D01*
D02*
G37*
G36*
X006438Y009853D02*
X006392Y009850D01*
X006348Y009839D01*
X006305Y009822D01*
X006267Y009798D01*
X006232Y009768D01*
X006202Y009733D01*
X006178Y009695D01*
X006161Y009652D01*
X006150Y009608D01*
X006147Y009562D01*
X006150Y009517D01*
X006161Y009473D01*
X006178Y009430D01*
X006202Y009392D01*
X006232Y009357D01*
X006267Y009327D01*
X006305Y009303D01*
X006348Y009286D01*
X006392Y009275D01*
X006438Y009272D01*
X006483Y009275D01*
X006527Y009286D01*
X006570Y009303D01*
X006608Y009327D01*
X006643Y009357D01*
X006673Y009392D01*
X006697Y009430D01*
X006714Y009473D01*
X006725Y009517D01*
X006728Y009562D01*
X006725Y009608D01*
X006714Y009652D01*
X006697Y009695D01*
X006673Y009733D01*
X006643Y009768D01*
X006608Y009798D01*
X006570Y009822D01*
X006527Y009839D01*
X006483Y009850D01*
X006438Y009853D01*
D02*
G37*
G36*
X006953Y009292D02*
X006875D01*
Y009225D01*
X006866D01*
X006872Y009214D01*
X006861Y009196D01*
X006859Y009188D01*
X006966D01*
X006964Y009196D01*
X006952Y009215D01*
X006950Y009216D01*
X006953Y009225D01*
X006953D01*
X006953Y009225D01*
Y009292D01*
D02*
G37*
G36*
X007178D02*
X006997D01*
Y009225D01*
X007016D01*
X007022Y009214D01*
X007011Y009196D01*
X007009Y009188D01*
X007116D01*
X007114Y009196D01*
X007102Y009215D01*
X007105Y009225D01*
X007178D01*
Y009292D01*
D02*
G37*
G36*
X008975Y009237D02*
X008934D01*
X008936Y009229D01*
X008948Y009210D01*
X008966Y009198D01*
X008975Y009196D01*
Y009237D01*
D02*
G37*
G36*
X009328Y009353D02*
X009147D01*
Y009172D01*
X009328D01*
Y009197D01*
X009397D01*
Y008700D01*
X009399Y008683D01*
X009402Y008676D01*
X009406Y008667D01*
X009416Y008654D01*
X009697Y008373D01*
Y008127D01*
X009549Y007979D01*
X009538Y007981D01*
X009510Y007977D01*
X009485Y007967D01*
X009463Y007950D01*
X009446Y007928D01*
X009435Y007902D01*
X009432Y007875D01*
X009435Y007848D01*
X009446Y007822D01*
X009463Y007800D01*
X009485Y007783D01*
X009510Y007773D01*
X009538Y007769D01*
X009565Y007773D01*
X009590Y007783D01*
X009612Y007800D01*
X009629Y007822D01*
X009640Y007848D01*
X009643Y007875D01*
X009642Y007887D01*
X009809Y008054D01*
X009819Y008067D01*
X009823Y008076D01*
X009826Y008083D01*
X009828Y008100D01*
Y008400D01*
X009826Y008417D01*
X009819Y008433D01*
X009809Y008446D01*
X009528Y008727D01*
Y009197D01*
X009650D01*
X009668Y009189D01*
X009688Y009187D01*
X009707Y009189D01*
X009725Y009197D01*
X009741Y009209D01*
X009753Y009225D01*
X009761Y009243D01*
X009763Y009262D01*
X009761Y009282D01*
X009753Y009300D01*
X009741Y009316D01*
X009725Y009328D01*
X009707Y009336D01*
X009688Y009338D01*
X009668Y009336D01*
X009650Y009328D01*
X009328D01*
Y009353D01*
D02*
G37*
G36*
X006750Y009229D02*
X006741Y009227D01*
X006723Y009215D01*
X006711Y009196D01*
X006709Y009188D01*
X006750D01*
Y009229D01*
D02*
G37*
G36*
X006850Y009292D02*
X006772D01*
Y009239D01*
X006763Y009231D01*
X006775Y009229D01*
Y009188D01*
X006816D01*
X006814Y009196D01*
X006802Y009215D01*
X006805Y009225D01*
X006850D01*
Y009292D01*
D02*
G37*
G36*
X009041Y009237D02*
X009000D01*
Y009196D01*
X009009Y009198D01*
X009027Y009210D01*
X009039Y009229D01*
X009041Y009237D01*
D02*
G37*
G36*
X009000Y009304D02*
Y009263D01*
X009041D01*
X009039Y009271D01*
X009027Y009290D01*
X009009Y009302D01*
X009000Y009304D01*
D02*
G37*
G36*
X008853Y009376D02*
X008848Y009375D01*
X008833Y009365D01*
X008823Y009350D01*
X008820Y009332D01*
Y009265D01*
X008853D01*
Y009376D01*
D02*
G37*
G36*
X008878D02*
Y009265D01*
X008911D01*
Y009332D01*
X008908Y009350D01*
X008898Y009365D01*
X008883Y009375D01*
X008878Y009376D01*
D02*
G37*
G36*
X005750Y009441D02*
X005710D01*
X005683Y009437D01*
X005657Y009427D01*
X005635Y009410D01*
X005618Y009388D01*
X005608Y009362D01*
X005604Y009335D01*
X005608Y009308D01*
X005618Y009282D01*
X005635Y009260D01*
X005657Y009243D01*
X005683Y009233D01*
X005710Y009229D01*
X005750D01*
X005777Y009233D01*
X005803Y009243D01*
X005825Y009260D01*
X005842Y009282D01*
X005852Y009308D01*
X005856Y009335D01*
X005852Y009362D01*
X005842Y009388D01*
X005825Y009410D01*
X005803Y009427D01*
X005777Y009437D01*
X005750Y009441D01*
D02*
G37*
G36*
X006078Y009412D02*
X005897D01*
Y009253D01*
X006078D01*
Y009412D01*
D02*
G37*
G36*
X008975Y009304D02*
X008966Y009302D01*
X008948Y009290D01*
X008936Y009271D01*
X008934Y009263D01*
X008975D01*
Y009304D01*
D02*
G37*
G36*
X009303Y009635D02*
X009225D01*
Y009568D01*
X009303D01*
Y009635D01*
D02*
G37*
G36*
X005750Y009791D02*
X005710D01*
X005683Y009787D01*
X005657Y009777D01*
X005635Y009760D01*
X005618Y009738D01*
X005608Y009712D01*
X005604Y009685D01*
X005608Y009658D01*
X005618Y009632D01*
X005635Y009610D01*
X005657Y009593D01*
X005683Y009583D01*
X005710Y009579D01*
X005750D01*
X005777Y009583D01*
X005803Y009593D01*
X005825Y009610D01*
X005842Y009632D01*
X005852Y009658D01*
X005856Y009685D01*
X005852Y009712D01*
X005842Y009738D01*
X005825Y009760D01*
X005803Y009777D01*
X005777Y009787D01*
X005750Y009791D01*
D02*
G37*
G36*
X008353Y009825D02*
X008172D01*
Y009665D01*
X008353D01*
Y009825D01*
D02*
G37*
G36*
X008900Y009635D02*
X008822D01*
Y009568D01*
X008900D01*
Y009635D01*
D02*
G37*
G36*
X009003D02*
X008925D01*
Y009568D01*
X009003D01*
Y009635D01*
D02*
G37*
G36*
X009200D02*
X009122D01*
Y009568D01*
X009200D01*
Y009635D01*
D02*
G37*
G36*
X009462Y009841D02*
X009243D01*
X009226Y009838D01*
X009219Y009836D01*
X009210Y009832D01*
X009201Y009825D01*
X009122D01*
Y009811D01*
X009003D01*
Y009825D01*
X008822D01*
Y009811D01*
X008715D01*
Y009825D01*
X008535D01*
Y009811D01*
X008495D01*
X008478Y009808D01*
X008471Y009806D01*
X008462Y009802D01*
X008449Y009791D01*
X008404Y009746D01*
X008393Y009733D01*
X008390Y009725D01*
X008387Y009717D01*
X008384Y009700D01*
Y009288D01*
X008215D01*
X008201Y009285D01*
X008190Y009278D01*
X007980Y009068D01*
X007972Y009056D01*
X007969Y009043D01*
Y008865D01*
X007925D01*
Y008685D01*
X008085D01*
Y008865D01*
X008041D01*
Y009028D01*
X008230Y009217D01*
X008427D01*
X008438Y009206D01*
X008439Y009206D01*
Y009172D01*
X008442Y009155D01*
X008452Y009140D01*
X008467Y009130D01*
X008485Y009127D01*
X008502Y009130D01*
X008517Y009140D01*
X008527Y009155D01*
X008530Y009172D01*
Y009206D01*
X008531Y009206D01*
X008541Y009220D01*
X008548Y009236D01*
X008550Y009253D01*
X008548Y009269D01*
X008541Y009285D01*
X008531Y009299D01*
X008530Y009299D01*
Y009332D01*
X008527Y009350D01*
X008517Y009365D01*
X008516Y009366D01*
Y009673D01*
X008522Y009679D01*
X008535D01*
Y009665D01*
X008715D01*
Y009679D01*
X008822D01*
Y009665D01*
X009003D01*
Y009679D01*
X009122D01*
Y009665D01*
X009303D01*
Y009709D01*
X009348D01*
X009416Y009641D01*
X009421Y009637D01*
X009411Y009621D01*
X009406Y009600D01*
X009411Y009579D01*
X009423Y009560D01*
X009441Y009548D01*
X009462Y009544D01*
X009484Y009548D01*
X009502Y009560D01*
X009514Y009579D01*
X009519Y009600D01*
X009514Y009621D01*
X009504Y009637D01*
X009509Y009641D01*
X009519Y009655D01*
X009526Y009671D01*
X009528Y009688D01*
X009526Y009704D01*
X009519Y009720D01*
X009511Y009731D01*
X009519Y009742D01*
X009526Y009758D01*
X009528Y009775D01*
X009526Y009792D01*
X009519Y009808D01*
X009509Y009821D01*
X009495Y009832D01*
X009479Y009838D01*
X009462Y009841D01*
D02*
G37*
G36*
X009829Y010000D02*
X009788D01*
Y009959D01*
X009796Y009961D01*
X009815Y009973D01*
X009827Y009991D01*
X009829Y010000D01*
D02*
G37*
G36*
X005039Y010001D02*
X005031Y010000D01*
X005012Y009988D01*
X005000Y009969D01*
X004999Y009961D01*
X005039D01*
Y010001D01*
D02*
G37*
G36*
X005065D02*
Y009961D01*
X005106D01*
X005104Y009969D01*
X005092Y009988D01*
X005074Y010000D01*
X005065Y010001D01*
D02*
G37*
G36*
X005039Y009935D02*
X004999D01*
X005000Y009926D01*
X005012Y009908D01*
X005031Y009896D01*
X005039Y009894D01*
Y009935D01*
D02*
G37*
G36*
X005106D02*
X005065D01*
Y009894D01*
X005074Y009896D01*
X005092Y009908D01*
X005104Y009926D01*
X005106Y009935D01*
D02*
G37*
G36*
X009762Y010000D02*
X009721D01*
X009723Y009991D01*
X009735Y009973D01*
X009754Y009961D01*
X009762Y009959D01*
Y010000D01*
D02*
G37*
G36*
X008715Y009635D02*
X008638D01*
Y009568D01*
X008715D01*
Y009635D01*
D02*
G37*
G36*
X009100Y009466D02*
X009091Y009464D01*
X009073Y009452D01*
X009061Y009434D01*
X009059Y009425D01*
X009100D01*
Y009466D01*
D02*
G37*
G36*
X009200Y009542D02*
X009122D01*
Y009477D01*
X009113Y009469D01*
X009125Y009466D01*
Y009425D01*
X009166D01*
X009164Y009434D01*
X009152Y009452D01*
X009136Y009463D01*
X009140Y009475D01*
X009200D01*
Y009542D01*
D02*
G37*
G36*
X009303D02*
X009225D01*
Y009475D01*
X009276D01*
X009284Y009465D01*
X009284Y009463D01*
X009325D01*
Y009504D01*
X009316Y009502D01*
X009314Y009500D01*
X009303Y009506D01*
Y009542D01*
D02*
G37*
G36*
X008975Y009454D02*
Y009413D01*
X009016D01*
X009014Y009421D01*
X009002Y009440D01*
X008984Y009452D01*
X008975Y009454D01*
D02*
G37*
G36*
X006953Y009575D02*
X006772D01*
Y009415D01*
X006953D01*
Y009575D01*
D02*
G37*
G36*
X007178D02*
X006997D01*
Y009415D01*
X007178D01*
Y009575D01*
D02*
G37*
G36*
X009350Y009504D02*
Y009463D01*
X009391D01*
X009389Y009471D01*
X009377Y009490D01*
X009359Y009502D01*
X009350Y009504D01*
D02*
G37*
G36*
X008900Y009542D02*
X008822D01*
Y009475D01*
X008900D01*
Y009542D01*
D02*
G37*
G36*
X009003D02*
X008925D01*
Y009475D01*
X009003D01*
Y009542D01*
D02*
G37*
G36*
X008612Y009635D02*
X008535D01*
Y009568D01*
X008612D01*
Y009635D01*
D02*
G37*
G36*
X008353Y009635D02*
X008172D01*
Y009475D01*
X008353D01*
Y009635D01*
D02*
G37*
G36*
X008612Y009542D02*
X008535D01*
Y009475D01*
X008612D01*
Y009542D01*
D02*
G37*
G36*
X008715D02*
X008638D01*
Y009475D01*
X008715D01*
Y009542D01*
D02*
G37*
G36*
X009025Y008866D02*
Y008825D01*
X009066D01*
X009064Y008834D01*
X009052Y008852D01*
X009034Y008864D01*
X009025Y008866D01*
D02*
G37*
G36*
X007225Y008891D02*
X007216Y008889D01*
X007198Y008877D01*
X007186Y008859D01*
X007184Y008850D01*
X007225D01*
Y008891D01*
D02*
G37*
G36*
X007250D02*
Y008850D01*
X007291D01*
X007289Y008859D01*
X007277Y008877D01*
X007259Y008889D01*
X007250Y008891D01*
D02*
G37*
G36*
X005962Y008862D02*
X005921D01*
X005923Y008854D01*
X005935Y008835D01*
X005954Y008823D01*
X005962Y008821D01*
Y008862D01*
D02*
G37*
G36*
X006029D02*
X005988D01*
Y008821D01*
X005996Y008823D01*
X006015Y008835D01*
X006027Y008854D01*
X006029Y008862D01*
D02*
G37*
G36*
X009000Y008866D02*
X008991Y008864D01*
X008973Y008852D01*
X008961Y008834D01*
X008959Y008825D01*
X009000D01*
Y008866D01*
D02*
G37*
G36*
X007587Y008891D02*
X007579Y008889D01*
X007560Y008877D01*
X007548Y008859D01*
X007546Y008850D01*
X007587D01*
Y008891D01*
D02*
G37*
G36*
X007825Y008916D02*
X007816Y008914D01*
X007798Y008902D01*
X007786Y008884D01*
X007784Y008875D01*
X007825D01*
Y008916D01*
D02*
G37*
G36*
X007850D02*
Y008875D01*
X007891D01*
X007889Y008884D01*
X007877Y008902D01*
X007859Y008914D01*
X007850Y008916D01*
D02*
G37*
G36*
X005737Y008972D02*
X005606D01*
X005608Y008958D01*
X005618Y008932D01*
X005635Y008910D01*
X005657Y008893D01*
X005683Y008883D01*
X005710Y008879D01*
X005737D01*
Y008972D01*
D02*
G37*
G36*
X007613Y008891D02*
Y008850D01*
X007654D01*
X007652Y008859D01*
X007640Y008877D01*
X007621Y008889D01*
X007613Y008891D01*
D02*
G37*
G36*
X006525Y008904D02*
X006516Y008902D01*
X006498Y008890D01*
X006486Y008871D01*
X006484Y008863D01*
X006525D01*
Y008904D01*
D02*
G37*
G36*
X006550D02*
Y008863D01*
X006591D01*
X006589Y008871D01*
X006577Y008890D01*
X006559Y008902D01*
X006550Y008904D01*
D02*
G37*
G36*
X005554Y008862D02*
X005513D01*
Y008821D01*
X005521Y008823D01*
X005540Y008835D01*
X005552Y008854D01*
X005554Y008862D01*
D02*
G37*
G36*
X007587Y008825D02*
X007546D01*
X007548Y008816D01*
X007560Y008798D01*
X007579Y008786D01*
X007587Y008784D01*
Y008825D01*
D02*
G37*
G36*
X007654D02*
X007613D01*
Y008784D01*
X007621Y008786D01*
X007640Y008798D01*
X007652Y008816D01*
X007654Y008825D01*
D02*
G37*
G36*
X006525Y008837D02*
X006484D01*
X006486Y008829D01*
X006498Y008810D01*
X006516Y008798D01*
X006525Y008796D01*
Y008837D01*
D02*
G37*
G36*
X009066Y008800D02*
X009025D01*
Y008759D01*
X009034Y008761D01*
X009052Y008773D01*
X009064Y008791D01*
X009066Y008800D01*
D02*
G37*
G36*
X007225Y008825D02*
X007184D01*
X007186Y008816D01*
X007198Y008798D01*
X007216Y008786D01*
X007225Y008784D01*
Y008825D01*
D02*
G37*
G36*
X007291D02*
X007250D01*
Y008784D01*
X007259Y008786D01*
X007277Y008798D01*
X007289Y008816D01*
X007291Y008825D01*
D02*
G37*
G36*
X006591Y008837D02*
X006550D01*
Y008796D01*
X006559Y008798D01*
X006577Y008810D01*
X006589Y008829D01*
X006591Y008837D01*
D02*
G37*
G36*
X005787Y008854D02*
X005779Y008852D01*
X005760Y008840D01*
X005748Y008821D01*
X005746Y008813D01*
X005787D01*
Y008854D01*
D02*
G37*
G36*
X005813D02*
Y008813D01*
X005854D01*
X005852Y008821D01*
X005840Y008840D01*
X005821Y008852D01*
X005813Y008854D01*
D02*
G37*
G36*
X005487Y008862D02*
X005446D01*
X005448Y008854D01*
X005460Y008835D01*
X005479Y008823D01*
X005487Y008821D01*
Y008862D01*
D02*
G37*
G36*
X007825Y008850D02*
X007784D01*
X007786Y008841D01*
X007798Y008823D01*
X007816Y008811D01*
X007825Y008809D01*
Y008850D01*
D02*
G37*
G36*
X007891D02*
X007850D01*
Y008809D01*
X007859Y008811D01*
X007877Y008823D01*
X007889Y008841D01*
X007891Y008850D01*
D02*
G37*
G36*
X008485Y008898D02*
X008467Y008895D01*
X008452Y008885D01*
X008442Y008870D01*
X008439Y008853D01*
Y008811D01*
X008275D01*
Y008865D01*
X008115D01*
Y008685D01*
X008275D01*
Y008739D01*
X008439D01*
Y008693D01*
X008442Y008675D01*
X008452Y008660D01*
X008467Y008650D01*
X008485Y008647D01*
X008502Y008650D01*
X008517Y008660D01*
X008527Y008675D01*
X008530Y008693D01*
Y008853D01*
X008527Y008870D01*
X008517Y008885D01*
X008502Y008895D01*
X008485Y008898D01*
D02*
G37*
G36*
X006750Y009162D02*
X006709D01*
X006711Y009154D01*
X006723Y009135D01*
X006741Y009123D01*
X006750Y009121D01*
Y009162D01*
D02*
G37*
G36*
X006816D02*
X006775D01*
Y009121D01*
X006784Y009123D01*
X006802Y009135D01*
X006814Y009154D01*
X006816Y009162D01*
D02*
G37*
G36*
X006900D02*
X006859D01*
X006861Y009154D01*
X006873Y009135D01*
X006891Y009123D01*
X006900Y009121D01*
Y009162D01*
D02*
G37*
G36*
X005763Y009089D02*
Y008998D01*
X005854D01*
X005852Y009012D01*
X005842Y009038D01*
X005825Y009060D01*
X005803Y009077D01*
X005777Y009087D01*
X005763Y009089D01*
D02*
G37*
G36*
X006395Y009140D02*
X006328D01*
Y009063D01*
X006395D01*
Y009140D01*
D02*
G37*
G36*
X006488D02*
X006420D01*
Y009063D01*
X006488D01*
Y009140D01*
D02*
G37*
G36*
X006966Y009162D02*
X006925D01*
Y009121D01*
X006934Y009123D01*
X006952Y009135D01*
X006964Y009154D01*
X006966Y009162D01*
D02*
G37*
G36*
X008738Y009419D02*
X008716Y009414D01*
X008698Y009402D01*
X008686Y009384D01*
X008681Y009362D01*
X008686Y009341D01*
X008693Y009331D01*
Y009294D01*
X008686Y009284D01*
X008681Y009262D01*
X008686Y009241D01*
X008693Y009231D01*
Y009172D01*
X008696Y009155D01*
X008706Y009140D01*
X008721Y009130D01*
X008739Y009127D01*
X008756Y009130D01*
X008771Y009140D01*
X008781Y009155D01*
X008784Y009172D01*
Y009234D01*
X008789Y009241D01*
X008794Y009262D01*
X008789Y009284D01*
X008784Y009291D01*
Y009332D01*
X008784Y009333D01*
X008789Y009341D01*
X008794Y009362D01*
X008789Y009384D01*
X008777Y009402D01*
X008759Y009414D01*
X008738Y009419D01*
D02*
G37*
G36*
X008853Y009240D02*
X008820D01*
Y009172D01*
X008823Y009155D01*
X008833Y009140D01*
X008848Y009130D01*
X008853Y009129D01*
Y009240D01*
D02*
G37*
G36*
X008911D02*
X008878D01*
Y009129D01*
X008883Y009130D01*
X008898Y009140D01*
X008908Y009155D01*
X008911Y009172D01*
Y009240D01*
D02*
G37*
G36*
X007050Y009162D02*
X007009D01*
X007011Y009154D01*
X007023Y009135D01*
X007041Y009123D01*
X007050Y009121D01*
Y009162D01*
D02*
G37*
G36*
X007116D02*
X007075D01*
Y009121D01*
X007084Y009123D01*
X007102Y009135D01*
X007114Y009154D01*
X007116Y009162D01*
D02*
G37*
G36*
X008612Y009381D02*
X008591Y009377D01*
X008573Y009365D01*
X008561Y009346D01*
X008556Y009325D01*
X008561Y009304D01*
X008566Y009296D01*
Y009172D01*
X008569Y009155D01*
X008579Y009140D01*
X008594Y009130D01*
X008611Y009127D01*
X008629Y009130D01*
X008644Y009140D01*
X008654Y009155D01*
X008657Y009172D01*
Y009293D01*
X008664Y009304D01*
X008669Y009325D01*
X008664Y009346D01*
X008652Y009365D01*
X008634Y009377D01*
X008612Y009381D01*
D02*
G37*
G36*
X005737Y009091D02*
X005710D01*
X005683Y009087D01*
X005657Y009077D01*
X005635Y009060D01*
X005618Y009038D01*
X005608Y009012D01*
X005606Y008998D01*
X005737D01*
Y009091D01*
D02*
G37*
G36*
X005962Y008929D02*
X005954Y008927D01*
X005935Y008915D01*
X005923Y008896D01*
X005921Y008888D01*
X005962D01*
Y008929D01*
D02*
G37*
G36*
X005988D02*
Y008888D01*
X006029D01*
X006027Y008896D01*
X006015Y008915D01*
X005996Y008927D01*
X005988Y008929D01*
D02*
G37*
G36*
X008262Y008950D02*
X008221D01*
X008223Y008941D01*
X008235Y008923D01*
X008254Y008911D01*
X008262Y008909D01*
Y008950D01*
D02*
G37*
G36*
X005854Y008972D02*
X005763D01*
Y008881D01*
X005777Y008883D01*
X005803Y008893D01*
X005825Y008910D01*
X005842Y008932D01*
X005852Y008958D01*
X005854Y008972D01*
D02*
G37*
G36*
X005487Y008929D02*
X005479Y008927D01*
X005460Y008915D01*
X005448Y008896D01*
X005446Y008888D01*
X005487D01*
Y008929D01*
D02*
G37*
G36*
X005513D02*
Y008888D01*
X005554D01*
X005552Y008896D01*
X005540Y008915D01*
X005521Y008927D01*
X005513Y008929D01*
D02*
G37*
G36*
X008329Y008950D02*
X008288D01*
Y008909D01*
X008296Y008911D01*
X008315Y008923D01*
X008327Y008941D01*
X008329Y008950D01*
D02*
G37*
G36*
X006488Y009037D02*
X006420D01*
Y008960D01*
X006488D01*
Y009037D01*
D02*
G37*
G36*
X008262Y009016D02*
X008254Y009014D01*
X008235Y009002D01*
X008223Y008984D01*
X008221Y008975D01*
X008262D01*
Y009016D01*
D02*
G37*
G36*
X008288D02*
Y008975D01*
X008329D01*
X008327Y008984D01*
X008315Y009002D01*
X008296Y009014D01*
X008288Y009016D01*
D02*
G37*
G36*
X009238Y009099D02*
X009214Y009096D01*
X009192Y009087D01*
X009173Y009073D01*
X009159Y009054D01*
X009150Y009032D01*
X009147Y009008D01*
X009150Y008985D01*
X009159Y008963D01*
X009173Y008944D01*
X009192Y008930D01*
X009214Y008921D01*
X009238Y008918D01*
X009261Y008921D01*
X009283Y008930D01*
X009302Y008944D01*
X009316Y008963D01*
X009325Y008985D01*
X009328Y009008D01*
X009325Y009032D01*
X009316Y009054D01*
X009302Y009073D01*
X009283Y009087D01*
X009261Y009096D01*
X009238Y009099D01*
D02*
G37*
G36*
X006078Y009222D02*
X005897D01*
Y009063D01*
X006031D01*
X006031Y009062D01*
X006036Y009041D01*
X006048Y009023D01*
X006052Y009020D01*
Y008838D01*
X006052Y008838D01*
X006052D01*
X006055Y008824D01*
X006062Y008812D01*
X006325Y008550D01*
X006336Y008542D01*
X006350Y008539D01*
X006583D01*
X006585Y008535D01*
X006604Y008523D01*
X006625Y008519D01*
X006646Y008523D01*
X006665Y008535D01*
X006677Y008554D01*
X006681Y008575D01*
X006677Y008596D01*
X006665Y008615D01*
X006646Y008627D01*
X006625Y008631D01*
X006604Y008627D01*
X006585Y008615D01*
X006583Y008611D01*
X006365D01*
X006123Y008852D01*
Y009012D01*
X006134Y009018D01*
X006135Y009018D01*
X006138Y009016D01*
Y008960D01*
X006297D01*
Y009140D01*
X006138D01*
Y009109D01*
X006135Y009107D01*
X006126Y009103D01*
X006109Y009114D01*
X006088Y009119D01*
X006087Y009119D01*
X006078Y009127D01*
Y009222D01*
D02*
G37*
G36*
X006395Y009037D02*
X006328D01*
Y008960D01*
X006395D01*
Y009037D01*
D02*
G37*
%LPD*%
D10*
X009212Y009555D02*
D03*
Y009745D02*
D03*
X008912Y009555D02*
D03*
Y009745D02*
D03*
X008625Y009555D02*
D03*
Y009745D02*
D03*
X005988Y009143D02*
D03*
Y009332D02*
D03*
X008262Y009745D02*
D03*
Y009555D02*
D03*
X008012Y008143D02*
D03*
Y008332D02*
D03*
X007088Y009305D02*
D03*
Y009495D02*
D03*
X006862Y009305D02*
D03*
Y009495D02*
D03*
X008850Y008255D02*
D03*
Y008445D02*
D03*
X009075Y008255D02*
D03*
Y008445D02*
D03*
D11*
X008865Y009253D02*
D03*
X008739D02*
D03*
X008611D02*
D03*
X008485D02*
D03*
X008865Y008772D02*
D03*
X008739D02*
D03*
X008611D02*
D03*
X008485D02*
D03*
D12*
X008005Y008775D02*
D03*
X008195D02*
D03*
X006407Y009050D02*
D03*
X006217D02*
D03*
D13*
X008012Y007760D02*
D03*
Y007940D02*
D03*
D14*
X006434Y007801D02*
D03*
Y008391D02*
D03*
X006688Y007801D02*
D03*
Y008391D02*
D03*
X006942Y007801D02*
D03*
Y008391D02*
D03*
X007196Y007801D02*
D03*
Y008391D02*
D03*
X007450Y007801D02*
D03*
Y008391D02*
D03*
X005109Y007801D02*
D03*
Y008391D02*
D03*
X005363Y007801D02*
D03*
Y008391D02*
D03*
X005617Y007801D02*
D03*
Y008391D02*
D03*
X005871Y007801D02*
D03*
Y008391D02*
D03*
X006125Y007801D02*
D03*
Y008391D02*
D03*
D15*
X007922Y007690D02*
Y007690D01*
D16*
X009538Y007875D02*
X009762Y008100D01*
Y008400D01*
X009462Y008700D02*
X009762Y008400D01*
X009462Y008700D02*
Y009262D01*
X009238D02*
X009462D01*
X009688D01*
X009212Y009745D02*
X009243Y009775D01*
X009388D01*
X008912Y009745D02*
X009212D01*
X008625D02*
X008912D01*
X008495D02*
X008625D01*
X008450Y009700D02*
X008495Y009745D01*
X008450Y009287D02*
Y009700D01*
Y009287D02*
X008485Y009253D01*
X005109Y008391D02*
X005363D01*
X005617D01*
X005871D01*
X006125D01*
X006434D01*
X006688D01*
X006942D01*
X007196D01*
X007450D01*
X005109Y007801D02*
X005363D01*
X005617D01*
X005871D01*
X006125D01*
X006434D01*
X006688D01*
X006942D01*
X007196D01*
X007450D01*
X007425Y008416D02*
Y009488D01*
Y008416D02*
X007450Y008391D01*
X009388Y009762D02*
Y009775D01*
Y009762D02*
X009462Y009688D01*
X009388Y009775D02*
X009462D01*
D17*
X007618Y008332D02*
X008012D01*
X007559Y008391D02*
X007618Y008332D01*
X007450Y008391D02*
X007559D01*
X008012Y007940D02*
Y008143D01*
X008850Y008445D02*
Y008488D01*
X008739Y008599D02*
X008850Y008488D01*
X008739Y008599D02*
Y008772D01*
X008865Y008622D02*
Y008772D01*
Y008622D02*
X008912Y008575D01*
X009025D01*
X009075Y008525D01*
Y008445D02*
Y008525D01*
X008195Y008775D02*
X008482D01*
X008485Y008772D01*
X008215Y009253D02*
X008485D01*
X008005Y009043D02*
X008215Y009253D01*
X008005Y008775D02*
Y009043D01*
X008611Y008661D02*
Y008772D01*
X008525Y008575D02*
X008611Y008661D01*
X006008Y009143D02*
X006088Y009062D01*
X006205D01*
X006217Y009050D01*
X006350Y008575D02*
X006625D01*
X006088Y008838D02*
X006350Y008575D01*
X006088Y008838D02*
Y009062D01*
X005962Y009143D02*
X005988D01*
X006008D01*
X007885Y007940D02*
X008012D01*
X007800Y008025D02*
X007885Y007940D01*
X007762Y008025D02*
X007800D01*
D18*
X005062Y010062D02*
G03*
X004938Y009938I000000J-000125D01*
G01*
X004938Y007688D02*
G03*
X005062Y007562I000125J000000D01*
G01*
X009812Y007562D02*
G03*
X009938Y007688I000000J000125D01*
G01*
X009938Y009938D02*
G03*
X009812Y010062I-000125J000000D01*
G01*
X005062D02*
X009812D01*
X004938Y007688D02*
Y009938D01*
X005062Y007562D02*
X009812D01*
X009938Y007688D02*
Y009938D01*
D19*
X005730Y009335D02*
D03*
Y008985D02*
D03*
X005730Y009685D02*
D03*
D20*
X007925Y009488D02*
D03*
X007425D02*
D03*
X009688Y009462D02*
D03*
Y009262D02*
D03*
Y009062D02*
D03*
D21*
X007762Y007833D02*
D03*
X009238Y009008D02*
D03*
D22*
X007762Y008088D02*
D03*
X009238Y009262D02*
D03*
D23*
X006438Y009562D02*
D03*
X008438Y008062D02*
D03*
D24*
X009688Y009672D02*
D03*
Y008853D02*
D03*
D25*
X009538Y008225D02*
D03*
Y007875D02*
D03*
D26*
X009462Y009775D02*
D03*
Y009600D02*
D03*
Y009688D02*
D03*
X008738Y009262D02*
D03*
Y009362D02*
D03*
X008262Y009750D02*
D03*
Y009550D02*
D03*
X008612Y009325D02*
D03*
X006875Y009488D02*
D03*
X007100D02*
D03*
X008525Y008575D02*
D03*
X006088Y009062D02*
D03*
X005988Y009338D02*
D03*
X008912Y009555D02*
D03*
X008962Y009400D02*
D03*
X008988Y009250D02*
D03*
X009212Y009555D02*
D03*
X009338Y009450D02*
D03*
X009112Y009412D02*
D03*
X006625Y008575D02*
D03*
X005052Y009948D02*
D03*
X005238Y007625D02*
D03*
X005738D02*
D03*
X006288D02*
D03*
X006800D02*
D03*
X007138D02*
D03*
X007888D02*
D03*
X007738Y008225D02*
D03*
X007762Y008488D02*
D03*
X007600Y008838D02*
D03*
X007238D02*
D03*
X005975Y008875D02*
D03*
X005800Y008800D02*
D03*
X005500Y008875D02*
D03*
X006475Y008700D02*
D03*
X006538Y008850D02*
D03*
X006862Y009300D02*
D03*
X007100D02*
D03*
X006762Y009175D02*
D03*
X006912D02*
D03*
X007062D02*
D03*
X008850Y008255D02*
D03*
X008625Y008375D02*
D03*
X008975Y007975D02*
D03*
X009688Y007762D02*
D03*
X009325Y007750D02*
D03*
X009400Y008038D02*
D03*
X009775Y010012D02*
D03*
X007838Y008862D02*
D03*
X008275Y008962D02*
D03*
X009012Y008812D02*
D03*
X009312Y008712D02*
D03*
M02*
